<?xml version="1.0" encoding="UTF-8"?>
<svg id="Capa_2" data-name="Capa 2" xmlns="http://www.w3.org/2000/svg" viewBox="0 0 999 309.08">
  <defs>
    <style>
      .cls-1 {
        fill: #76bc21;
      }
    </style>
  </defs>
  <g id="Capa_1-2" data-name="Capa 1">
    <g>
      <path class="cls-1" d="m245.49,0H63.6C28.48,0,0,28.48,0,63.6v181.89c0,35.11,28.48,63.59,63.6,63.59h181.89c35.11,0,63.59-28.48,63.59-63.59V63.6c0-35.12-28.48-63.6-63.59-63.6Zm-113.28,40.29c.41.41.8.82,1.19,1.26,12.29,13.52,31.32,16.12,42.53,6.52,17.02-14.53,40.81-13.67,58.77-.97,7.1,5,8.53,15.73,2.99,21.13l-51.91,50.73c-5.39,5.29-14.33,4.95-19.99-.92l-56.11-58.28c-15.88-16.5,6.89-35.27,22.54-19.48ZM56.76,197.54c.45-.46.92-.9,1.4-1.34,15.05-13.78,15.05-34.63,0-47.49-25.09-21.43-30.53-53.78-15.48-78.3,6.01-9.82,22.22-10.07,31.4-1.09l70.47,68.84c6,5.86,6,15.22,0,21.1l-59.93,58.55c-17.01,16.62-45.22-2.8-27.86-20.27Zm157.75,46.84c-.32-.26-.64-.54-.94-.81-9.96-9.12-26.8-6.82-37.65,5.77-17.94,20.85-46.61,29.95-71.61,23.19-10.81-2.92-13.06-15.75-4.49-24.65l65.96-68.51c5.65-5.86,14.6-6.19,19.99-.92l45.27,44.26c10.57,10.31-4.84,31.16-16.53,21.67Zm56.17-40c-3.09,7.82-11.8,10.35-17.04,4.92l-49.06-50.97c-5.08-5.28-5.08-13.97,0-19.24l42.77-44.43c10-10.39,24.97,7.23,15.98,18.24-.24.31-.49.6-.74.88-8.44,9.27-8.44,25.15,0,34.93,12.86,14.94,15.45,37.04,8.1,55.68Z"/>
      <g>
        <g>
          <path class="cls-1" d="m414.61,158.2V38.33h-43.72v154.54h111.42v-34.66h-67.7Z"/>
          <path class="cls-1" d="m598.08,38.33h-43.05l-68.21,154.54h44.59l12.15-30.03h65.35l12.13,30.03h45.48l-68.43-154.54Zm-41.73,92.29l19.86-49.45,19.87,49.45h-39.73Z"/>
          <path class="cls-1" d="m775.23,38.33v82.35l-68.23-82.35h-35.98v154.54h42.82v-82.34l68.21,82.34h35.99V38.33h-42.82Z"/>
          <path class="cls-1" d="m988.18,74.75c-7.21-11.62-17.38-20.59-30.47-26.92-13.1-6.33-28.1-9.5-45.03-9.5h-73.07v154.54h73.07c16.93,0,31.94-3.16,45.03-9.49,13.1-6.33,23.26-15.31,30.47-26.94,7.21-11.62,10.82-25.24,10.82-40.84s-3.61-29.21-10.82-40.84Zm-45.37,71.98c-8.02,7.5-18.66,11.25-31.9,11.25h-27.6v-84.78h27.6c13.24,0,23.88,3.75,31.9,11.26,8.01,7.51,12.03,17.88,12.03,31.13s-4.02,23.63-12.03,31.14Z"/>
        </g>
        <g>
          <path class="cls-1" d="m401.15,224.42v18.85h-23.62v-18.85h-8.48v45.67h8.48v-19.57h23.62v19.57h8.48v-45.67h-8.48Z"/>
          <path class="cls-1" d="m480.75,262.99v-12.59h22.06v-6.98h-22.06v-11.87h24.86v-7.12h-33.35v45.67h34.25v-7.11h-25.77Z"/>
          <path class="cls-1" d="m574.64,262.92v-38.5h-8.48v45.67h32.36v-7.18h-23.88Z"/>
          <path class="cls-1" d="m705.6,224.42h-6.98l-17.81,30.28-18.13-30.28h-6.98v45.67h8.08v-29.88l15.01,24.66h3.79l15.01-25.06.06,30.28h8.04l-.07-45.67Z"/>
          <path class="cls-1" d="m776.81,262.99v-12.59h22.06v-6.98h-22.06v-11.87h24.86v-7.12h-33.35v45.67h34.26v-7.11h-25.78Z"/>
          <path class="cls-1" d="m857.8,224.42v7.18h15.13v38.5h8.48v-38.5h15.14v-7.18h-38.76Z"/>
          <path class="cls-1" d="m984.89,250.13c-1.55-1.74-3.41-3.03-5.59-3.88s-4.96-1.67-8.34-2.45c-2.48-.61-4.44-1.16-5.87-1.63-1.44-.48-2.62-1.13-3.56-1.96-.94-.84-1.4-1.9-1.4-3.21,0-1.87.81-3.37,2.44-4.5,1.64-1.13,4.12-1.69,7.48-1.69,2.05,0,4.16.3,6.33.92,2.17.61,4.26,1.5,6.26,2.67l2.68-6.58c-1.96-1.3-4.29-2.31-6.98-3.01-2.7-.69-5.44-1.04-8.22-1.04-4.01,0-7.38.62-10.15,1.83-2.76,1.21-4.82,2.86-6.19,4.92-1.37,2.07-2.06,4.36-2.06,6.88,0,3.01.78,5.39,2.32,7.15,1.55,1.75,3.39,3.06,5.54,3.88,2.15.82,4.97,1.65,8.45,2.47,2.48.62,4.44,1.16,5.87,1.64,1.44.48,2.62,1.14,3.56,1.99.94.85,1.4,1.92,1.4,3.23,0,1.79-.84,3.22-2.51,4.3-1.67,1.09-4.21,1.63-7.6,1.63-2.74,0-5.47-.46-8.18-1.4-2.72-.94-5.01-2.14-6.89-3.62l-2.93,6.58c1.91,1.66,4.51,2.98,7.8,3.98,3.29,1,6.69,1.5,10.21,1.5,4.01,0,7.4-.61,10.18-1.83,2.78-1.21,4.87-2.84,6.23-4.89,1.37-2.05,2.06-4.33,2.06-6.86,0-2.95-.78-5.3-2.31-7.04Z"/>
        </g>
      </g>
      <g>
        <path class="cls-1" d="m971.76,11.38c1.35-.27,3.27-.43,5.09-.43,2.84,0,4.67.52,5.95,1.68,1.04.91,1.61,2.32,1.61,3.91,0,2.71-1.7,4.51-3.86,5.24v.08c1.58.55,2.53,2.02,3.02,4.15.67,2.86,1.16,4.84,1.58,5.63h-2.74c-.34-.57-.79-2.34-1.36-4.9-.62-2.84-1.72-3.9-4.12-4h-2.5v8.9h-2.65V11.38Zm2.65,9.36h2.71c2.84,0,4.64-1.55,4.64-3.9,0-2.66-1.93-3.81-4.73-3.85-1.28,0-2.19.12-2.63.25v7.49Z"/>
        <path class="cls-1" d="m977.65,42.73c-11.77,0-21.36-9.59-21.36-21.36s9.58-21.36,21.36-21.36,21.35,9.59,21.35,21.36-9.58,21.36-21.35,21.36m0-38.73c-9.57,0-17.37,7.79-17.37,17.37s7.79,17.37,17.37,17.37,17.37-7.79,17.37-17.37-7.79-17.37-17.37-17.37"/>
      </g>
    </g>
  </g>
</svg>