<?xml version="1.0" encoding="UTF-8"?>
<svg id="Capa_2" data-name="Capa 2" xmlns="http://www.w3.org/2000/svg" viewBox="0 0 307.61 307.61">
  <defs>
    <style>
      .cls-1 {
        fill: #f5f5f5;
      }

      .cls-2 {
        fill: #c42d1f;
      }
    </style>
  </defs>
  <g id="Flag">
    <g>
      <path class="cls-2" d="m116.86,303.07C34.4,282.67-15.86,199.3,4.54,116.86,24.94,34.41,108.3-15.86,190.74,4.54c82.44,20.4,132.73,103.76,112.32,186.22-20.4,82.44-103.76,132.73-186.2,112.32"/>
      <path class="cls-2" d="m102.15,298.65V8.96C55.27,25.72,17.4,64.9,4.54,116.86c-19.16,77.41,24,155.64,97.61,181.78"/>
      <path class="cls-1" d="m185.42,3.32c-.33-.07-.66-.14-.98-.2-.57-.12-1.14-.23-1.71-.34-.33-.06-.66-.13-.99-.19-.59-.11-1.18-.21-1.78-.32-.3-.05-.6-.11-.9-.16-.74-.12-1.48-.24-2.22-.35-.15-.02-.29-.05-.44-.07-.89-.13-1.78-.26-2.66-.37-.24-.03-.47-.06-.71-.09-.65-.08-1.3-.16-1.95-.24-.31-.04-.62-.07-.93-.1-.58-.06-1.17-.12-1.75-.18-.32-.03-.65-.06-.97-.09-.59-.05-1.18-.1-1.77-.15-.3-.02-.6-.05-.9-.07-.68-.05-1.35-.09-2.03-.13-.21-.01-.41-.03-.61-.04-.89-.05-1.78-.09-2.66-.12-.15,0-.29,0-.43-.01-.74-.03-1.47-.05-2.2-.06-.28,0-.56,0-.84-.01-.6,0-1.21-.02-1.82-.02-.3,0-.61,0-.91,0-.59,0-1.18,0-1.78.02-.29,0-.58,0-.88.01-.65.01-1.3.03-1.95.05-.22,0-.45.01-.67.02-1.76.07-3.51.16-5.26.29-.23.02-.46.04-.69.05-.64.05-1.28.1-1.92.16-.28.02-.56.05-.84.08-.6.06-1.2.12-1.81.18-.27.03-.55.06-.83.09-.64.07-1.28.15-1.91.23-.22.03-.45.05-.67.08-1.74.23-3.48.48-5.21.77-.16.03-.31.05-.46.08-.7.12-1.4.24-2.09.37-.24.04-.48.09-.71.13-.62.12-1.25.24-1.87.36-.25.05-.49.1-.74.15-.64.13-1.28.27-1.91.41-.21.05-.42.09-.63.14-.78.17-1.56.35-2.34.54l-.17.04c-.81.2-1.63.4-2.44.61h0c-4.51,1.17-8.95,2.53-13.31,4.09v289.69c4.78,1.7,9.68,3.18,14.71,4.42,20.63,5.11,41.32,5.78,61.07,2.63.09-.01.18-.03.26-.04.72-.12,1.44-.24,2.16-.36.15-.03.3-.05.46-.08.67-.12,1.34-.24,2.01-.37.2-.04.4-.08.6-.12.63-.12,1.27-.25,1.9-.38.24-.05.48-.1.71-.15.6-.13,1.2-.26,1.8-.39.28-.06.56-.13.83-.2.56-.13,1.12-.26,1.68-.4.42-.1.84-.22,1.26-.32.63-.16,1.26-.33,1.89-.49.62-.17,1.24-.33,1.86-.51.27-.08.54-.16.82-.24.59-.17,1.17-.34,1.76-.51.27-.08.55-.17.82-.25.58-.18,1.16-.36,1.74-.54.27-.09.54-.17.81-.26.58-.19,1.17-.38,1.75-.58.26-.09.52-.18.79-.27.59-.2,1.17-.41,1.75-.62.14-.05.27-.1.41-.15h0c.36-.13.72-.26,1.08-.39V9.56c-.36-.13-.72-.25-1.08-.38v-.02c-.9-.32-1.81-.63-2.72-.94-.09-.03-.18-.06-.27-.09-1.19-.4-2.38-.78-3.58-1.16-.17-.05-.33-.11-.5-.16-1.12-.34-2.25-.67-3.39-.99-.24-.07-.47-.14-.71-.21-1.35-.37-2.71-.73-4.08-1.07-.89-.22-1.77-.43-2.66-.63-.28-.06-.57-.12-.85-.19-.61-.14-1.21-.27-1.82-.4"/>
      <path class="cls-2" d="m155.35,211.64h1.99l-.64-26.43,1.84-1.58c8.28.99,15.72,1.88,24.01,2.89l-2.11-7.22c-.34-1.27.15-2.66,1.09-3.43l24.07-20.44-4.99-2.45c-2.18-.82-1.57-2.11-.78-5.2l3.66-13.97-13.97,3.07c-1.37.22-2.28-.69-2.48-1.55l-1.81-6.57-11.05,12.94c-1.57,2.08-4.76,2.08-3.77-2.72l4.73-26.22-6.34,3.44c-1.78,1.03-3.56,1.2-4.56-.65l-8.89-17.06-8.9,17.06c-.99,1.85-2.78,1.68-4.55.65l-6.33-3.44,4.72,26.22c.98,4.8-2.2,4.8-3.77,2.72l-11.06-12.94-1.79,6.57c-.21.86-1.11,1.77-2.48,1.55l-13.98-3.07,3.67,13.97c.79,3.1,1.4,4.38-.79,5.2l-5,2.45,24.08,20.44c.95.77,1.43,2.16,1.1,3.43l-2.11,7.22c8.28-1.01,15.72-1.9,24-2.89l1.84,1.58-.64,26.43h1.99Z"/>
    </g>
  </g>
</svg>