<?xml version="1.0" encoding="UTF-8"?>
<svg id="Capa_2" data-name="Capa 2" xmlns="http://www.w3.org/2000/svg" viewBox="0 0 307.61 307.61">
  <defs>
    <style>
      .cls-1 {
        fill: #f4d217;
      }

      .cls-2 {
        fill: #076eb3;
      }
    </style>
  </defs>
  <g id="Flag">
    <g>
      <path class="cls-2" d="m4.54,116.86C24.94,34.4,108.32-15.86,190.75,4.54c82.45,20.4,132.72,103.76,112.33,186.2-20.4,82.44-103.76,132.73-186.21,112.32C34.42,282.67-15.87,199.31,4.54,116.86"/>
      <path class="cls-1" d="m55.71,208.65l-3.95-12.11-3.92,12.13h-12.73l10.3,7.49-3.92,12.08,10.3-7.49,10.3,7.49-3.95-12.11,10.28-7.48h-12.7Zm-19.31-44.79l10.33,7.46-3.98-12.08,10.28-7.51-12.73.03-3.98-12.08-3.9,12.11-12.73.05,10.33,7.44-3.9,12.11,10.27-7.51Zm179.71,88.52l-3.9-12.11-3.98,12.08-12.7-.05,10.27,7.51-4,12.11,10.33-7.46,10.27,7.51-3.9-12.11,10.33-7.46-12.73-.03Zm-116.97.28l-3.92-12.08-3.92,12.11-12.73.03,10.3,7.46-3.9,12.11,10.27-7.51,10.3,7.46-3.95-12.08,10.28-7.49h-12.73Zm59.45,15.7l-3.95-12.08-3.92,12.13h-12.7l10.28,7.49-3.87,12.08,10.27-7.49,10.33,7.44-3.97-12.08,10.25-7.49h-12.7Zm100.86-59.64l-3.95-12.08-3.92,12.08-12.73.03,10.33,7.46-3.92,12.11,10.28-7.49,10.3,7.46-3.95-12.08,10.3-7.51-12.73.03Zm28.11-57.16l-12.73-.05-3.87-12.11-4,12.08-12.73-.05,10.27,7.51-3.97,12.08,10.32-7.44,10.28,7.54-3.9-12.13,10.33-7.43Zm-43.29-39.97l10.27-7.48,10.3,7.48-3.95-12.08,10.3-7.51-12.73.03-3.95-12.13-3.92,12.13h-12.73l10.33,7.49-3.92,12.08Zm-31.39-73.94l-3.9,12.08-12.73.03,10.33,7.46-3.92,12.11,10.28-7.46,10.3,7.44-3.95-12.08,10.28-7.51-12.7.03-3.98-12.08ZM40.58,112.53l10.28-7.49,10.3,7.46-3.95-12.11,10.3-7.49h-12.73l-3.95-12.08-3.92,12.11-12.73.02,10.3,7.46-3.9,12.11Zm43.4-43.37l10.3-7.49,10.28,7.46-3.93-12.11,10.28-7.49h-12.7l-3.95-12.08-3.92,12.11h-12.73l10.3,7.46-3.92,12.14Zm59.35-15.85l10.3-7.49,10.3,7.49-3.92-12.11,10.27-7.46h-12.73l-3.92-12.11-3.92,12.11h-12.73l10.27,7.46-3.92,12.11Z"/>
    </g>
  </g>
</svg>