<?xml version="1.0" encoding="UTF-8"?>
<svg id="Capa_2" data-name="Capa 2" xmlns="http://www.w3.org/2000/svg" xmlns:xlink="http://www.w3.org/1999/xlink" viewBox="0 0 307.59 307.59">
  <defs>
    <style>
      .cls-1 {
        fill: #fff;
      }

      .cls-2 {
        fill: #aa1731;
      }

      .cls-3 {
        clip-path: url(#clippath);
      }

      .cls-4 {
        fill: none;
      }

      .cls-5 {
        fill: #162667;
      }
    </style>
    <clipPath id="clippath">
      <circle class="cls-4" cx="153.79" cy="153.79" r="153.79"/>
    </clipPath>
  </defs>
  <g id="Flag">
    <g class="cls-3">
      <g>
        <rect class="cls-5" x="-93.29" y="0" width="512.65" height="307.59"/>
        <g>
          <rect class="cls-5" x="-41.11" y="0" width="210.5" height="126.3"/>
          <g>
            <rect class="cls-1" x="49.4" y="0" width="29.47" height="126.3"/>
            <rect class="cls-1" x="-41.11" y="48.42" width="210.5" height="29.47"/>
            <rect class="cls-2" x="-41.11" y="53.68" width="210.5" height="18.95"/>
            <rect class="cls-2" x="54.66" y="0" width="18.95" height="126.3"/>
          </g>
          <g>
            <polygon class="cls-1" points="49.4 77.89 49.4 84.57 -15.27 126.3 -41.11 126.3 -41.11 112.91 13.16 77.89 49.4 77.89"/>
            <polygon class="cls-2" points="49.4 77.89 -25.61 126.3 -41.11 126.3 -41.11 126.28 33.88 77.89 49.4 77.89"/>
          </g>
          <g>
            <polygon class="cls-1" points="169.39 110.1 169.39 126.3 146.93 126.3 78.87 87.03 78.87 77.89 113.57 77.89 169.39 110.1"/>
            <polygon class="cls-2" points="169.39 116.58 169.39 126.3 85.51 77.89 102.35 77.89 169.39 116.58"/>
          </g>
          <g>
            <polygon class="cls-1" points="169.39 0 169.39 13.41 115.12 48.42 78.87 48.42 78.87 48.41 78.87 41.74 143.57 0 169.39 0"/>
            <polygon class="cls-2" points="169.39 0 169.39 .04 94.4 48.42 78.87 48.42 78.87 48.41 153.92 0 169.39 0"/>
          </g>
          <g>
            <polygon class="cls-1" points="49.4 39.76 49.4 48.42 14.02 48.42 -41.11 16.4 -41.11 0 -19.05 0 49.4 39.76"/>
            <polygon class="cls-2" points="41.95 48.42 25.19 48.42 -41.11 9.91 -41.11 .17 41.95 48.42"/>
          </g>
        </g>
        <g>
          <polygon class="cls-2" points="210.09 145.43 214.16 157.94 227.3 157.94 216.67 165.66 220.73 178.17 210.09 170.44 199.46 178.17 203.52 165.66 192.88 157.94 206.03 157.94 210.09 145.43"/>
          <path class="cls-1" d="m198.07,180.08l4.59-14.14-12.03-8.74h14.86l4.59-14.14,4.59,14.14h14.87l-12.03,8.74,4.59,14.14-12.03-8.74-12.03,8.74Zm12.03-10.54l9.25,6.72-3.53-10.87,9.25-6.72h-11.43l-3.53-10.87-3.53,10.87h-11.43l9.25,6.72-3.53,10.87,9.25-6.72Z"/>
        </g>
        <g>
          <polygon class="cls-2" points="260.91 74.99 264.98 87.49 278.12 87.49 267.49 95.22 271.55 107.72 260.91 100 250.28 107.72 254.34 95.22 243.7 87.49 256.85 87.49 260.91 74.99"/>
          <path class="cls-1" d="m272.94,109.64l-12.03-8.74-12.03,8.74,4.59-14.14-12.03-8.74h14.87l4.59-14.14,4.59,14.14h14.87l-12.03,8.74,4.59,14.14Zm-26.99-21.42l9.25,6.72-3.53,10.87,9.25-6.72,9.25,6.72-3.53-10.87,9.25-6.72h-11.43l-3.53-10.87-3.53,10.87h-11.43Z"/>
        </g>
        <g>
          <polygon class="cls-2" points="296.27 131.37 300.34 143.88 313.48 143.88 302.85 151.61 306.91 164.11 296.27 156.38 285.64 164.11 289.7 151.61 279.06 143.88 292.21 143.88 296.27 131.37"/>
          <path class="cls-1" d="m284.25,166.02l4.59-14.14-12.03-8.74h14.87l4.59-14.14,4.59,14.14h14.87l-12.03,8.74,4.59,14.14-12.03-8.74-12.03,8.74Zm12.03-10.54l9.25,6.72-3.53-10.87,9.25-6.72h-11.43l-3.53-10.87-3.53,10.87h-11.43l9.25,6.72-3.53,10.87,9.25-6.72Z"/>
        </g>
        <g>
          <polygon class="cls-2" points="260.91 205.77 264.98 218.27 278.12 218.27 267.49 226 271.55 238.5 260.91 230.77 250.28 238.5 254.34 226 243.7 218.27 256.85 218.27 260.91 205.77"/>
          <path class="cls-1" d="m272.94,240.41l-12.03-8.74-12.03,8.74,4.59-14.14-12.03-8.74h14.87l4.59-14.14,4.59,14.14h14.87l-12.03,8.74,4.59,14.14Zm-26.99-21.41l9.25,6.72-3.53,10.87,9.25-6.72,9.25,6.72-3.53-10.87,9.25-6.72h-11.43l-3.53-10.87-3.53,10.87h-11.43Z"/>
        </g>
      </g>
    </g>
  </g>
</svg>