<?xml version="1.0" encoding="UTF-8"?>
<svg id="Capa_2" data-name="Capa 2" xmlns="http://www.w3.org/2000/svg" xmlns:xlink="http://www.w3.org/1999/xlink" viewBox="0 0 307.62 307.61">
  <defs>
    <style>
      .cls-1 {
        fill: #2e3869;
      }

      .cls-2 {
        fill: #f3f1ee;
      }

      .cls-3 {
        fill: #383d61;
      }

      .cls-4 {
        fill: url(#radial-gradient);
      }

      .cls-5 {
        clip-path: url(#clippath);
      }

      .cls-6 {
        fill: none;
      }

      .cls-7 {
        fill: #c42d1f;
      }
    </style>
    <clipPath id="clippath">
      <path class="cls-6" d="m153.68,0C84.65,0,21.87,46.82,4.54,116.86c-20.42,82.44,29.88,165.81,112.32,186.2,82.45,20.41,165.81-29.88,186.21-112.32,20.4-82.44-29.87-165.81-112.33-186.2C178.34,1.47,165.92,0,153.69,0h-.01"/>
    </clipPath>
    <radialGradient id="radial-gradient" cx="-338.62" cy="2054.56" fx="-338.62" fy="2054.56" r=".78" gradientTransform="translate(67021.2 405863.31) scale(197.47 -197.47)" gradientUnits="userSpaceOnUse">
      <stop offset="0" stop-color="#fff"/>
      <stop offset=".78" stop-color="#fff"/>
      <stop offset=".82" stop-color="#f8f8f7"/>
      <stop offset=".88" stop-color="#e7e5e3"/>
      <stop offset=".96" stop-color="#cbc7c1"/>
      <stop offset="1" stop-color="#bab4ac"/>
    </radialGradient>
  </defs>
  <g id="Flag">
    <g>
      <g class="cls-5">
        <rect class="cls-4" x="-15.87" y="0" width="339.34" height="323.47"/>
      </g>
      <path class="cls-1" d="m4.54,116.86C24.94,34.4,108.32-15.86,190.75,4.54c82.45,20.4,132.72,103.76,112.33,186.2-20.4,82.44-103.76,132.73-186.21,112.32C34.42,282.67-15.87,199.3,4.54,116.86"/>
      <path class="cls-2" d="m262.89,45.39l-61.84,41.22V7.48c-3.38-1.09-6.81-2.07-10.3-2.94-29.01-7.18-58.14-5.6-84.6,3.05v79.02l-61.59-41.05c-14.11,14.21-25.57,31.31-33.35,50.68l16.31,10.87H7.31c-1.01,3.2-1.94,6.44-2.76,9.74-7.24,29.22-5.58,58.55,3.23,85.16h20.15l-16.14,10.76c7.82,18.8,19.33,35.95,33.85,50.34l60.52-40.34v77.22c3.5,1.14,7.07,2.17,10.71,3.06,28.87,7.15,57.84,5.62,84.19-2.92v-77.36l60.76,40.5c14.27-14.05,25.93-31.02,33.94-50.28l-16.47-10.98h20.55c1.21-3.69,2.3-7.45,3.25-11.27,7.09-28.66,5.63-57.43-2.74-83.62h-20.65l16.63-11.08c-7.67-18.88-19.03-36.14-33.43-50.65"/>
      <path class="cls-7" d="m82.5,107.12l-57.1-37.98c-3.8,5.76-7.24,11.82-10.27,18.15l29.81,19.83h37.56Zm199.47-38.28c-3.84-5.79-8.07-11.33-12.66-16.57l-68.25,45.39v9.45h23.38l57.54-38.28ZM25.83,239.04c3.85,5.78,8.09,11.3,12.7,16.53l67.63-44.98v-8.57h-24.65l-55.68,37.03Zm279.41-112.16h-123.95V2.52c-18.79-3.43-37.5-3.28-55.37.03v124.34H2.42c-3.36,18.79-3.14,37.49.23,55.35h123.26v122.78c18.79,3.48,37.49,3.38,55.37.12v-122.9h123.63c3.55-18.77,3.5-37.47.31-55.35m-79.49,75.14l55.96,37.21c3.83-5.74,7.3-11.78,10.36-18.09l-28.77-19.13h-37.56Z"/>
      <path class="cls-3" d="m201.06,23.48h0v9.97c.6-1.89.92-3.68.92-5.36,0-1.65-.3-3.19-.92-4.61"/>
    </g>
  </g>
</svg>