<?xml version="1.0" encoding="UTF-8"?>
<svg id="Capa_2" data-name="Capa 2" xmlns="http://www.w3.org/2000/svg" viewBox="0 0 307.61 307.61">
  <defs>
    <style>
      .cls-1 {
        fill: #2e3869;
      }

      .cls-2 {
        fill: #f5f5f5;
      }

      .cls-3 {
        fill: #c42d1f;
      }
    </style>
  </defs>
  <g id="Flag">
    <g>
      <path class="cls-2" d="m4.54,116.86C24.94,34.4,108.32-15.86,190.75,4.54c82.45,20.4,132.72,103.76,112.33,186.2-20.4,82.44-103.76,132.73-186.21,112.32C34.42,282.67-15.87,199.3,4.54,116.86"/>
      <path class="cls-3" d="m296.03,95.32h-119.13v23.54h126.69c-1.89-8.07-4.43-15.94-7.56-23.54m-30.41-47.11h-88.72v23.57h106.97c-5.3-8.41-11.41-16.3-18.25-23.57M42.74,260.17h222.14c6.88-7.17,13.09-15.04,18.53-23.54H24.25c5.37,8.41,11.57,16.3,18.49,23.54M190.75,4.54c-4.62-1.14-9.24-2.05-13.85-2.76v22.89h60.46c-13.94-9.02-29.59-15.92-46.62-20.13m116.44,137.87h-130.29v23.57h130.2c.64-7.93.66-15.8.08-23.57M11.92,213.09h283.8c2.97-7.14,5.44-14.6,7.36-22.34.1-.41.19-.81.29-1.22H4.22c1.94,8.08,4.52,15.96,7.7,23.56m104.95,89.97c9.1,2.25,18.21,3.64,27.25,4.22h19.57c26.03-1.67,50.87-9.95,72.38-23.56H71.48c13.63,8.63,28.86,15.26,45.39,19.34"/>
      <path class="cls-1" d="m165.25,157.34l-3.32-2.42-3.33,2.42,1.27-3.9-3.32-2.42h4.1l1.28-3.9,1.26,3.9h4.11l-3.32,2.42,1.27,3.9Zm-16.34-123.93l1.27,3.92-3.32-2.42-3.33,2.42,1.28-3.92-3.33-2.4h4.1l1.28-3.92,1.27,3.92h4.11l-3.33,2.4Zm0,35.41l1.27,3.9-3.32-2.42-3.33,2.42,1.28-3.9-3.33-2.42h4.1l1.28-3.9,1.27,3.9h4.11l-3.33,2.42Zm-.3,34.69l1.27,3.9-3.33-2.42-3.32,2.42,1.27-3.9-3.33-2.42h4.12l1.27-3.9,1.26,3.9h4.11l-3.32,2.42Zm.96,38.19l-3.33-2.42-3.32,2.42,1.26-3.9-3.33-2.42h4.11l1.27-3.9,1.27,3.9h4.12l-3.33,2.42,1.28,3.9Zm-16.35-91.13l1.28,3.9-3.32-2.4-3.34,2.4,1.28-3.9-3.32-2.42h4.1l1.28-3.9,1.26,3.9h4.1l-3.32,2.42Zm0,34.31l1.28,3.9-3.32-2.42-3.34,2.42,1.28-3.9-3.32-2.42h4.1l1.28-3.9,1.26,3.9h4.1l-3.32,2.42Zm0,35.07l1.28,3.92-3.32-2.42-3.34,2.42,1.28-3.92-3.32-2.4h4.1l1.28-3.92,1.26,3.92h4.1l-3.32,2.4Zm1.28,37.4l-3.32-2.42-3.34,2.42,1.28-3.9-3.32-2.42h4.1l1.28-3.9,1.26,3.9h4.1l-3.32,2.42,1.28,3.9Zm-16.35-123.93l1.28,3.92-3.33-2.42-3.33,2.42,1.28-3.92-3.32-2.4h4.1l1.27-3.92,1.27,3.92h4.11l-3.33,2.4Zm0,35.41l1.28,3.9-3.33-2.42-3.33,2.42,1.28-3.9-3.32-2.42h4.1l1.27-3.9,1.27,3.9h4.11l-3.33,2.42Zm-.29,34.69l1.27,3.9-3.33-2.42-3.32,2.42,1.27-3.9-3.33-2.42h4.1l1.28-3.9,1.27,3.9h4.12l-3.32,2.42Zm.95,38.19l-3.32-2.42-3.33,2.42,1.27-3.9-3.32-2.42h4.1l1.28-3.9,1.27,3.9h4.1l-3.32,2.42,1.27,3.9Zm-16.33-125.41l1.27,3.9-3.32-2.42-3.33,2.42,1.27-3.9-3.32-2.42h4.11l1.27-3.9,1.27,3.9h4.12l-3.33,2.42Zm0,34.28l1.27,3.9-3.32-2.4-3.33,2.4,1.27-3.9-3.32-2.42h4.11l1.27-3.9,1.27,3.9h4.12l-3.33,2.42Zm0,34.31l1.27,3.9-3.32-2.42-3.33,2.42,1.27-3.9-3.32-2.42h4.11l1.27-3.9,1.27,3.9h4.12l-3.33,2.42Zm0,35.07l1.27,3.92-3.32-2.42-3.33,2.42,1.27-3.92-3.32-2.4h4.11l1.27-3.92,1.27,3.92h4.12l-3.33,2.4Zm1.27,37.4l-3.32-2.42-3.33,2.42,1.27-3.9-3.32-2.42h4.11l1.27-3.9,1.27,3.9h4.12l-3.33,2.42,1.27,3.9Zm-16.33-125.16l1.28,3.92-3.34-2.42-3.32,2.42,1.28-3.92-3.33-2.4h4.1l1.27-3.9,1.28,3.9h4.1l-3.32,2.4Zm0,35.4l1.28,3.9-3.34-2.4-3.32,2.4,1.28-3.9-3.33-2.42h4.1l1.27-3.9,1.28,3.9h4.1l-3.32,2.42Zm-.31,34.69l1.28,3.9-3.32-2.42-3.34,2.42,1.28-3.9-3.32-2.42h4.1l1.28-3.9,1.26,3.9h4.11l-3.33,2.42Zm.97,38.21l-3.33-2.42-3.32,2.42,1.27-3.92-3.33-2.4h4.1l1.28-3.9,1.27,3.9h4.12l-3.32,2.4,1.27,3.92Zm-16.33-89.92l1.28,3.9-3.32-2.4-3.34,2.4,1.28-3.9-3.32-2.42h4.09l1.29-3.9,1.26,3.9h4.1l-3.32,2.42Zm0,34.31l1.28,3.9-3.32-2.42-3.34,2.42,1.28-3.9-3.32-2.42h4.09l1.29-3.9,1.26,3.9h4.1l-3.32,2.42Zm0,35.07l1.28,3.92-3.32-2.42-3.34,2.42,1.28-3.92-3.32-2.4h4.09l1.29-3.92,1.26,3.92h4.1l-3.32,2.4Zm1.28,37.4l-3.32-2.42-3.34,2.42,1.28-3.9-3.32-2.42h4.09l1.29-3.9,1.26,3.9h4.1l-3.32,2.42,1.28,3.9Zm-16.35-90.1l1.27,3.9-3.32-2.42-3.33,2.42,1.28-3.9-3.33-2.42h4.11l1.27-3.9,1.26,3.9h4.12l-3.33,2.42Zm-.3,34.69l1.27,3.9-3.32-2.42-3.33,2.42,1.27-3.9-3.32-2.42h4.1l1.28-3.9,1.25,3.9h4.12l-3.32,2.42Zm.95,38.19l-3.32-2.42-3.32,2.42,1.27-3.9-3.33-2.42h4.12l1.27-3.9,1.28,3.9h4.1l-3.33,2.42,1.27,3.9ZM129.91,13.86l1.28-3.9,1.26,3.9h4.1l-3.32,2.42,1.28,3.9-3.32-2.42-3.34,2.42,1.28-3.9-3.32-2.42h4.1Zm30.74,103.68l1.28-3.92,1.26,3.92h4.11l-3.32,2.4,1.27,3.92-3.32-2.42-3.33,2.42,1.27-3.92-3.32-2.4h4.1Zm0-35.09l1.28-3.9,1.26,3.9h4.11l-3.32,2.42,1.27,3.9-3.32-2.42-3.33,2.42,1.27-3.9-3.32-2.42h4.1Zm0-34.31l1.28-3.9,1.26,3.9h4.11l-3.32,2.42,1.27,3.9-3.32-2.4-3.33,2.4,1.27-3.9-3.32-2.42h4.1Zm0-34.28l1.28-3.9,1.26,3.9h4.11l-3.32,2.42,1.27,3.9-3.32-2.42-3.33,2.42,1.27-3.9-3.32-2.42h4.1ZM41,84.87l1.27,3.9-3.33-2.42-3.32,2.42,1.27-3.9-3.33-2.42h4.1l1.28-3.9,1.27,3.9h4.12l-3.32,2.42Zm0,35.07l1.27,3.92-3.33-2.42-3.32,2.42,1.27-3.92-3.33-2.4h4.1l1.28-3.92,1.27,3.92h4.12l-3.32,2.4Zm1.27,37.4l-3.33-2.42-3.32,2.42,1.27-3.9-3.33-2.42h4.1l1.28-3.9,1.27,3.9h4.12l-3.32,2.42,1.27,3.9Zm-16.66-56.01l1.28,3.9-3.33-2.42-3.32,2.42,1.27-3.9-3.33-2.42h4.12l1.27-3.9,1.28,3.9h4.1l-3.33,2.42Zm.97,38.19l-3.32-2.42-3.34,2.42,1.28-3.9-3.32-2.42h4.1l1.28-3.9,1.25,3.9h4.12l-3.33,2.42,1.28,3.9Zm-15.07,17.83l-3.32-2.42-3.33,2.42,1.27-3.9-3.32-2.42h4.11l1.27-3.9,1.28,3.9h4.09l-3.32,2.42,1.27,3.9ZM176.91,1.78c-1.51-.23-12.72-1.46-14.23-1.65l-27.64,1.02c-28.65,3.53-55.53,15.09-77.66,32.87l.57,1.75-1.44-1.05c-5.09,4.15-9.91,8.64-14.45,13.43h2.27l-3.32,2.42,1.27,3.9-3.33-2.4-1.33.96c-3.1,3.57-6.04,7.3-8.82,11.17h.46l-.96.7c-.67.95-1.34,1.91-1.99,2.88l.89,2.75-1.83-1.32c-9.35,14.2-16.5,30.21-20.82,47.66-.06.23-.11.46-.16.69h2.55l1.27-3.92,1.28,3.92h4.09l-3.32,2.4,1.27,3.92-3.32-2.42-3.33,2.42,1.27-3.92-1.98-1.43C.37,134.54-.76,150.58.5,166.18h176.4V1.78Z"/>
    </g>
  </g>
</svg>