<?xml version="1.0" encoding="UTF-8" standalone="no"?><svg xmlns="http://www.w3.org/2000/svg" xmlns:xlink="http://www.w3.org/1999/xlink" contentScriptType="text/ecmascript" fill="#ffffff" width="34" zoomAndPan="magnify" contentStyleType="text/css" viewBox="52.3 41.1 34.0 56.3" height="56.3" preserveAspectRatio="xMidYMid meet" version="1"><g id="change1_1"><path fill="inherit" d="M84.629,65.592c-0.28-0.282-0.59-0.52-0.912-0.727L62.108,43.257c-2.109-2.107-5.527-2.108-7.637,0.001 c-2.109,2.108-2.109,5.527,0,7.637l18.611,18.609L54.377,88.211c-2.11,2.107-2.11,5.527,0,7.637c1.055,1.053,2.436,1.58,3.817,1.58 c1.381,0,2.765-0.527,3.817-1.582l21.706-21.703c0.322-0.207,0.631-0.444,0.912-0.727c1.08-1.08,1.598-2.498,1.574-3.912 C86.228,68.09,85.709,66.67,84.629,65.592z"/></g></svg>