<?xml version="1.0" encoding="UTF-8" standalone="no"?><svg xmlns="http://www.w3.org/2000/svg" xmlns:xlink="http://www.w3.org/1999/xlink" contentScriptType="text/ecmascript" fill="#000000" width="284.4" zoomAndPan="magnify" contentStyleType="text/css" viewBox="-0.1 -0.1 284.4 291.7" height="291.7" preserveAspectRatio="xMidYMid meet" version="1"><g data-name="Layer 2"><g fill="#ffffff" id="change1_1" data-name="Layer 1"><path d="M89.28,97.59H109.9a4.82,4.82,0,0,0,4.82-4.83V90.07h8.36l14.26,11.54v30.73l-17,12.21a4.81,4.81,0,0,0-2,3.92v41.17l-10,7.16H93.14a2.7,2.7,0,0,1-2.69-2.69,4.83,4.83,0,1,0-9.65,0,12.36,12.36,0,0,0,12.34,12.34H109.9a4.81,4.81,0,0,0,2.81-.91l12-8.6h5.61v25a11.86,11.86,0,0,0,23.72,0v-25h5.61l12,8.6a4.84,4.84,0,0,0,2.82.91h16.75a12.36,12.36,0,0,0,12.34-12.34,4.83,4.83,0,1,0-9.65,0,2.7,2.7,0,0,1-2.69,2.69H176l-10-7.16V148.47a4.8,4.8,0,0,0-2-3.92l-17-12.21V101.61l14.25-11.54h8.36v2.69a4.83,4.83,0,0,0,4.83,4.83H195a12.34,12.34,0,0,0,0-24.68H174.43a4.82,4.82,0,0,0-4.83,4.82v2.69H159.54a4.81,4.81,0,0,0-3,1.08L142.16,93.1,127.83,81.5a4.83,4.83,0,0,0-3-1.08H114.72V77.73a4.82,4.82,0,0,0-4.82-4.82H89.28a12.34,12.34,0,0,0,0,24.68ZM156.36,151v36.34H154v-25a11.86,11.86,0,1,0-23.72,0v25H128V151l14.2-10.19ZM140,162.33a2.21,2.21,0,0,1,4.42,0V221.9a2.21,2.21,0,0,1-4.42,0ZM89.28,82.56h15.79v5.38H89.28a2.69,2.69,0,0,1,0-5.38Zm108.45,2.69A2.7,2.7,0,0,1,195,87.94H179.25V82.56H195A2.7,2.7,0,0,1,197.73,85.25Z"/><path d="M56.56,235.07a120.68,120.68,0,0,0,85.22,35.38c.13,0,.25.07.38.07s.25-.06.38-.07a121,121,0,0,0,0-242c-.13,0-.24-.08-.37-.08s-.24.07-.37.08A120.8,120.8,0,0,0,21.18,149.1c0,.13-.07.24-.07.37s.06.24.07.37A120.68,120.68,0,0,0,56.56,235.07ZM60.15,74.28l.84.85a4.83,4.83,0,1,0,6.83-6.83L67,67.46a110.78,110.78,0,0,1,70.37-29.11V39.5a4.83,4.83,0,1,0,9.65,0V38.35a110.82,110.82,0,0,1,70.36,29.1l-.84.85a4.83,4.83,0,0,0,6.82,6.83l.85-.86a110.39,110.39,0,0,1,29.15,70.37h-1.2a4.83,4.83,0,1,0,0,9.65h1.2a110.35,110.35,0,0,1-29.15,70.37l-.85-.85a4.83,4.83,0,0,0-6.82,6.83l.84.84A110.83,110.83,0,0,1,147,260.59v-1.16a4.83,4.83,0,0,0-9.65,0v1.16A110.89,110.89,0,0,1,67,231.48l.85-.84A4.83,4.83,0,0,0,61,223.81l-.84.85A110.78,110.78,0,0,1,31,154.29H32.2a4.83,4.83,0,0,0,0-9.65H31A110.78,110.78,0,0,1,60.15,74.28Z"/><path d="M155.21,7.93a4.75,4.75,0,0,0,.25-6A4.83,4.83,0,0,0,148.69,1l-9.47,7.31c-.09.07-.12.16-.2.23a4.38,4.38,0,0,0-.87,1,5.14,5.14,0,0,0-.29.51c-.06.13-.16.24-.21.38a4.64,4.64,0,0,0-.16.74,4.42,4.42,0,0,0-.1.5,4.63,4.63,0,0,0,.1,1.66c0,.06.06.12.08.18a4.48,4.48,0,0,0,.67,1.37c0,.07,0,.14.1.2s.15.1.21.17.26.36.42.51l8.86,7.79a4.83,4.83,0,0,0,7.42-5.95c66.94,6.59,119.42,63.22,119.42,131.87,0,73.07-59.44,132.51-132.51,132.51S9.65,222.54,9.65,149.47a4.83,4.83,0,1,0-9.65,0c0,78.39,63.77,142.16,142.16,142.16s142.16-63.77,142.16-142.16C284.32,75.48,227.5,14.54,155.21,7.93Z"/></g></g></svg>