<?xml version="1.0" encoding="UTF-8"?>
<svg id="Capa_2" data-name="Capa 2" xmlns="http://www.w3.org/2000/svg" viewBox="0 0 2000 2000">
  <defs>
    <style>
      .cls-1 {
        fill: #fff;
      }
    </style>
  </defs>
  <g id="Capa_1-2" data-name="Capa 1">
    <g>
      <path class="cls-1" d="m1734.69,2000H265.31C119.01,2000,0,1880.98,0,1734.69V265.31C0,119.02,119.01,0,265.31,0h1469.39c146.29,0,265.31,119.02,265.31,265.31v1469.39c0,146.29-119.01,265.31-265.31,265.31ZM265.31,40.82c-123.78,0-224.49,100.71-224.49,224.49v1469.39c0,123.78,100.71,224.49,224.49,224.49h1469.39c123.78,0,224.49-100.71,224.49-224.49V265.31c0-123.78-100.71-224.49-224.49-224.49H265.31Z"/>
      <g>
        <g>
          <path class="cls-1" d="m387.71,1282.75c-11.17,0-22.14-.47-32.88-1.43-68.06-6.06-116.55-24.62-148.22-56.76h0c-8.33-8.46-15.56-17.95-21.49-28.21-26.17-45.3-29.03-105.25-7.66-160.36,5.86-15.1,14.89-27.18,23.64-38.86,8.76-11.7,17.03-22.76,19.82-34.63,31.06-132.16,69.61-243.4,117.86-340.09,114.32-229.07,319.67-372.14,563.38-392.51,54.33-4.54,109.61-2.74,164.3,5.35,261.96,38.79,508.78,223.23,628.79,469.88,46.36,95.3,72.91,199.31,78.94,309.28l52.1,52.09c9.22,9.22,12.7,22.73,9.1,35.26-3.62,12.57-13.79,22.19-26.54,25.11-240.39,54.97-418.59,55.4-529.65,1.29-84.49-41.16-172.38-61.28-247.23-56.71-78.34,4.8-128.07,16.85-197.06,47.76-12.76,5.71-26.17,11.96-41.01,19.09-25.19,12.04-50.27,24.9-74.52,37.34-60.63,31.09-123.31,63.24-190.25,84.28-48.02,15.08-96.28,22.83-141.41,22.83Zm-152.02-86.83c24.59,24.94,64.75,39.58,122.77,44.75,48.82,4.36,103.6-2.46,158.43-19.69,63.62-19.99,124.74-51.34,183.85-81.65,24.51-12.57,49.84-25.56,75.15-37.66,15.49-7.44,29.23-13.84,42.32-19.71,73.13-32.76,128.41-46.17,211.24-51.24,81.9-5,176.91,16.55,267.61,60.75,101.2,49.31,267.39,48.48,494.04-2.42l-56.93-56.92-.36-7.9c-4.91-107.31-30.24-208.66-75.27-301.22-114.29-234.89-349.05-410.49-598.07-447.36-51.58-7.64-103.71-9.35-154.93-5.06-232.55,19.44-420.87,150.87-530.25,370.07-46.82,93.83-84.32,202.16-114.65,331.21-4.74,20.16-16.49,35.88-26.87,49.74-7.41,9.92-14.42,19.28-18.26,29.17-16.69,43.04-14.8,91,4.94,125.17,4.19,7.26,9.33,13.99,15.23,19.99h0Z"/>
          <path class="cls-1" d="m938.16,547.11c14.27,3.42,16.25,22.92,2.91,29.02-53.35,24.44-125.14,66.52-191.84,137.93-104.61,111.99-139.63,235.02-152.24,296.92-1.46,7.18-7.8,12.29-15.13,12.29h-203.7c-8.54,0-15.46-6.92-15.46-15.46h0c0-56.67,10.67-112.91,32.29-165.3,38.79-94.01,119.36-226.09,276.93-283.07,107.12-38.73,205.8-26.84,266.23-12.35Z"/>
          <path class="cls-1" d="m1734.26,1027.68c-25.16-114.01-77.01-217.78-149.95-300.08-14.51-16.35-29.59-31.64-44.8-45.4-54.15-49.42-120.97-91.16-198.68-124.13-95.82-40.86-207.65-68.54-332.4-82.3-146.61-16.11-362.45-11.59-558.22,101.37-23.3,13.45-45.91,28.07-67.2,43.46l-23.92-33.08c22.42-16.2,46.21-31.59,70.71-45.74,205.35-118.47,430.44-123.36,583.08-106.58,128.74,14.19,244.44,42.9,343.91,85.31,81.93,34.76,152.65,79.01,210.16,131.49,16.25,14.71,32.38,31.05,47.89,48.53,77.54,87.5,132.61,197.58,159.27,318.37l-39.86,8.79Z"/>
          <path class="cls-1" d="m1727.75,1014.47l-194.09-64.7c-6.53-2.18-10.7-8.36-10.53-15.24,2.66-105.25-119.44-337.24-174.33-395.25,75.06,31.85,145.1,73.67,204.39,127.78,16.31,14.76,31.77,30.54,46.38,47,88.75,100.15,128.92,208.42,148.03,281.84,3.09,11.89-8.21,22.45-19.86,18.57Z"/>
          <path class="cls-1" d="m384.42,1195.11c-18.97,0-38.26-1.98-57.25-6.82-98-24.96-132.79-98.65-106.38-225.28l39.96,8.33c-27.49,131.77,20.52,163.13,76.5,177.39,43.56,11.11,95.54,5.8,163.61-16.65,149.92-49.47,285.69-145.31,382.3-269.89,6.86-8.85,17.19-13.93,28.34-13.93h292.67c12.59,0,24.39,6.75,30.8,17.61,35.52,59.87,84.79,108.11,142.46,139.48,163.82,89.14,335.23,15.25,367.93-.47l17.68,36.79c-35.84,17.23-223.84,98.17-405.11-.47-63.35-34.45-117.45-87.01-156.64-152.12h-287.33c-101.44,130.01-243.52,230.03-400.31,281.76-34.28,11.31-80.72,24.27-129.22,24.27Zm815.41-308.45s0,.01.02.02c0,0,0-.01-.02-.02Z"/>
        </g>
        <g>
          <path class="cls-1" d="m433.29,1540.7h-91.43v-53.87h248.98v53.87h-91.43v231.84h-66.12v-231.84Z"/>
          <path class="cls-1" d="m777.66,1671.31v101.23h-66.13v-102.04l-110.61-183.67h70.21l76.32,126.94,76.32-126.94h64.9l-111.02,184.49Z"/>
          <path class="cls-1" d="m1103.5,1499.48c18.64,8.44,32.99,20.41,43.06,35.92,10.06,15.51,15.1,33.87,15.1,55.1s-5.04,39.25-15.1,54.89c-10.08,15.65-24.43,27.62-43.06,35.92-18.64,8.3-40.61,12.44-65.92,12.44h-57.55v78.78h-66.12v-285.71h123.67c25.31,0,47.28,4.23,65.92,12.65Zm-24.28,127.55c10.33-8.57,15.51-20.74,15.51-36.53s-5.17-28.37-15.51-36.94c-10.35-8.57-25.45-12.86-45.31-12.86h-53.87v99.19h53.87c19.87,0,34.96-4.29,45.31-12.86Z"/>
          <path class="cls-1" d="m1423.86,1719.48v53.06h-221.22v-285.71h215.91v53.06h-150.2v62.04h132.65v51.43h-132.65v66.12h155.51Z"/>
          <path class="cls-1" d="m1592.02,1486.83h66.12v285.71h-66.12v-285.71Z"/>
        </g>
      </g>
    </g>
  </g>
</svg>