<?xml version="1.0" encoding="UTF-8"?>
<svg id="Capa_2" data-name="Capa 2" xmlns="http://www.w3.org/2000/svg" viewBox="0 0 2000 2000">
  <defs>
    <style>
      .cls-1 {
        fill: #fff;
      }
    </style>
  </defs>
  <g id="Capa_1-2" data-name="Capa 1">
    <g>
      <path class="cls-1" d="m1734.69,2000H265.31C119.01,2000,0,1880.98,0,1734.69V265.31C0,119.02,119.01,0,265.31,0h1469.39c146.29,0,265.31,119.02,265.31,265.31v1469.39c0,146.29-119.01,265.31-265.31,265.31ZM265.31,40.82c-123.78,0-224.49,100.71-224.49,224.49v1469.39c0,123.78,100.71,224.49,224.49,224.49h1469.39c123.78,0,224.49-100.71,224.49-224.49V265.31c0-123.78-100.71-224.49-224.49-224.49H265.31Z"/>
      <g>
        <g>
          <path class="cls-1" d="m716.14,973.69c-23.73,5.48-46.14,11.23-67.09,17.14-54.4,15.33-110.58,23.23-167.1,23.23h-59.9c0-131.02,41.21-257.92,116.52-361.47l53.03,26.53c29.21,14.62,35.53,53.56,12.43,76.65h0c-16.85,16.85-18.74,43.52-4.44,62.57l116.56,155.34Z"/>
          <path class="cls-1" d="m1348.89,973.69c23.73,5.48,46.14,11.23,67.09,17.14,54.4,15.33,110.58,23.23,167.1,23.23h59.9c0-131.02-41.21-257.92-116.52-361.47l-53.03,26.53c-29.21,14.62-35.53,53.56-12.43,76.65h0c16.85,16.85,18.74,43.52,4.44,62.57l-116.56,155.34Z"/>
          <path class="cls-1" d="m1642.98,1034.47h-58.98c-58.23,0-117.56-8.34-176.36-24.79-19.67-5.51-40.21-10.75-61.07-15.58h-6.45l-1.87-1.92c-9.14-2.05-18.14-3.97-27.1-5.84l-6.55-1.29c-3.64-.72-7.33-1.45-11.03-2.15l-2.97-.56c-4.94-.94-9.85-1.88-14.76-2.75-12.3-2.18-24.87-4.21-37.83-6.17-4.89-.73-9.74-1.42-14.53-2.09l-1.74-.24c-7.77-1.04-15.77-2.09-23.99-3.07-4.69-.57-9.36-1.07-13.93-1.57l-2.89-.31c-6.82-.75-13.48-1.43-20.07-2.02-6.41-.63-12.61-1.12-18.68-1.61l-2.93-.21c-5.48-.42-10.91-.84-16.26-1.19-23.01-1.49-45.96-2.42-68.21-2.79-16.71-.15-30.4-.14-44.64,0-23.41.42-45.73,1.33-68.09,2.78-5.54.35-10.92.77-16.35,1.2l-2.03.14c-6.53.51-13.05,1.09-19.5,1.67-6.74.6-13.37,1.28-20.01,2.02-5.72.61-11.26,1.21-16.81,1.89l-2.78.35c-7.01.86-14.13,1.74-21.3,2.74-5.5.75-10.87,1.5-16.18,2.32-12.41,1.89-25.08,3.93-37.97,6.19-5.8,1.03-11.56,2.13-17.32,3.24-5.66,1.02-10.79,2.06-15.96,3.11l-2.06.41c-11.25,2.32-22.19,4.74-32.91,7.16l-2.22.5h-2.27v-20.11l-15.04-14.25,10.85-4.65-.29-1.3c10.95-2.47,22.14-4.94,33.71-7.33l2.13-.43c5.48-1.11,10.9-2.21,16.33-3.18,6-1.15,11.95-2.3,17.98-3.36,13.23-2.32,26.2-4.4,38.86-6.33,5.5-.85,11.11-1.63,16.8-2.41,7.34-1.02,14.66-1.93,21.87-2.81l2.81-.35c5.78-.71,11.54-1.33,17.35-1.95,6.84-.77,13.79-1.47,20.82-2.1,6.85-.61,13.79-1.23,20.75-1.77l1.23-.08c5.63-.44,11.2-.88,16.92-1.24,22.98-1.49,45.92-2.43,70.13-2.86,14.82-.15,29.19-.17,45.07,0,23.72.38,47.34,1.34,71.01,2.87,5.52.36,11.11.79,16.76,1.22l3.01.22c6.33.5,12.79,1.02,19.31,1.66,6.67.61,13.59,1.31,20.66,2.08l2.86.31c4.74.51,9.56,1.04,14.37,1.62,8.39,1,16.57,2.08,24.67,3.16l1.87.26c4.92.69,9.9,1.39,14.94,2.15,13.32,2.01,26.23,4.1,38.91,6.34,5.09.92,10.14,1.87,15.23,2.84l2.95.56c3.79.72,7.59,1.47,11.35,2.21l6.68,1.32c11.38,2.37,22.58,4.77,34.02,7.39l6.05,1.43c20.26,4.74,40.19,9.85,59.36,15.21,55.21,15.45,110.84,23.28,165.35,23.28h38.23c-7.46-220.57-135.28-421.21-329.91-515.29-59.18-28.69-121.7-47.02-185.85-54.49-24.3-2.84-49.11-4.15-73.7-3.83l-.49-40.82c26.35-.31,52.9,1.07,78.92,4.11,68.69,8,135.62,27.61,198.91,58.29,214.6,103.73,353.28,328.34,353.28,572.21h0c0,11.31-9.1,20.51-20.41,20.64h0Z"/>
          <path class="cls-1" d="m481.03,1034.47h-58.98c-11.27,0-20.41-9.14-20.41-20.41h0c0-244.09,138.68-468.7,353.31-572.45,63.26-30.66,130.19-50.28,198.9-58.29,26-3.04,52.43-4.42,78.91-4.11l-.49,40.82c-24.68-.3-49.4,1-73.69,3.83-64.17,7.48-126.69,25.81-185.84,54.48-194.71,94.12-322.56,294.86-329.94,515.3h38.24c54.51,0,110.15-7.83,165.35-23.28,21.05-5.89,42.98-11.46,65.18-16.57,5.68-1.32,11.4-2.65,17.06-3.83l4-.86c4.37-.94,8.68-1.87,13.04-2.75,44.28-9.07,89.4-16.08,134.06-20.82,7.01-.77,13.92-1.47,20.77-2.09,6.41-.63,12.91-1.15,19.28-1.66l1.47-.12c11.39-.86,22.39-1.63,33-2.17,9.73-.58,19.28-.96,28.56-1.33l5.42-.17c7.3-.2,14.39-.38,21.31-.51l11.61-.08c10.5-.22,22.77-.04,34.16.08,7.47.16,14.64.31,21.81.55.06-.02.76.02,1.47.05l.93.03c7.12.24,14.01.47,20.91.86,5.57.22,11.48.53,17.39.93,23.37,1.4,46.14,3.3,67.55,5.64,5.76.62,11.51,1.24,17.27,1.94l1.33.17c.61.07,1.22.14,1.83.23,4.67.54,9.3,1.15,13.9,1.76l5.75.75c42.79,5.84,85.82,13.7,128.01,23.4l-9.14,39.78c-41.01-9.42-82.81-17.06-124.25-22.72l-5.72-.75c-4.47-.59-8.98-1.19-13.54-1.71l-.82-.11c-1.45-.17-2.18-.26-2.92-.37-4.93-.59-10.47-1.19-16.09-1.79-20.81-2.28-42.9-4.12-65.75-5.49-5.68-.38-11.22-.68-16.76-.9-6.93-.39-13.51-.61-20.18-.83-.2,0-.94-.02-1.67-.06-7.82-.25-14.84-.4-21.94-.55-7.3-.07-14.96-.21-22.53-.15-3.48,0-7.04,0-10.59.07l-11.63.08c-6.43.12-13.4.31-20.6.51l-4.89.15c-9.02.36-18.3.73-27.93,1.3-10.46.53-21.13,1.29-32.1,2.11l-1.4.11c-6.12.49-12.36.98-18.66,1.6-6.76.61-13.42,1.29-20.24,2.04-43.43,4.61-87.24,11.41-130.29,20.23-4.25.86-8.4,1.75-12.6,2.65l-4.17.9c-5.45,1.13-10.86,2.4-16.27,3.66-21.64,4.98-42.94,10.39-63.38,16.11-58.79,16.45-118.13,24.79-176.36,24.79Z"/>
          <path class="cls-1" d="m816.96,724.26l-26.72-30.86,54.82-47.46c5.33-4.62,6.13-10.39,6.13-13.42s-.8-8.8-6.13-13.41l-54.82-47.46,26.72-30.86,54.82,47.46c12.85,11.13,20.22,27.27,20.22,44.27s-7.37,33.14-20.22,44.28l-54.82,47.46Z"/>
          <path class="cls-1" d="m1046.95,646.95l-28.86-28.87,49.33-49.33c6.92-6.92,6.92-18.18,0-25.1l-49.33-49.33,28.86-28.86,49.33,49.33c22.83,22.83,22.83,59.98,0,82.82l-49.33,49.33Z"/>
          <path class="cls-1" d="m1275.87,723.26l-28.86-28.87,49.33-49.33c6.92-6.92,6.92-18.18,0-25.1l-49.33-49.33,28.86-28.86,49.33,49.33c22.83,22.83,22.83,59.98,0,82.82l-49.33,49.33Z"/>
          <path class="cls-1" d="m516.61,1273.54c-101.95,0-215.55-17.1-315.26-78.94-8.59-5.2-14.6-14.06-16.33-24.19-1.75-10.25,1.04-20.74,7.65-28.78l1.89-2.29,28.91-19.53c16.15-10.91,25.8-29.05,25.8-48.55v-259.22c0-22.08,7.73-43.59,21.79-60.57l39.77-47.97c3.06-3.62,5.57-7.67,7.58-12.17,129.04-285.05,414.77-465.7,727.36-460.71,425.6,7.1,771.12,359.28,770.22,785.07-.07,32.3-2.1,64.42-6.01,95.64l.03.04c17.29,17.29,27.97,46.29,26.59,72.16-1.04,19.35-8.76,35.77-21.74,46.23-32.31,26.04-83.75,30.46-121.32,33.69l-9.58.84v-.07s-1.12.08-1.12.08c-42.9,1.59-85.04-.25-125.16-5.48-57.52-7.54-114.18-21.39-168.99-34.79-40.04-9.79-81.46-19.91-122.39-27.32-146.44-26.65-271.26.7-403.4,29.65-62.99,13.81-128.12,28.08-197.54,36.85-43.73,5.51-94.62,10.34-148.76,10.34Zm-286.28-109.1c106.9,63.26,243.83,81.74,429.93,58.26,67.59-8.53,131.82-22.61,193.92-36.22,136.24-29.86,264.94-58.07,419.44-29.94,42.13,7.63,84.14,17.9,124.78,27.83,53.74,13.13,109.31,26.72,164.6,33.96,37.85,4.94,77.67,6.69,118.35,5.17v.04l8.71-.77c32.33-2.78,76.59-6.58,99.21-24.81,5.17-4.18,6.35-12.21,6.58-16.63.77-14.3-5.55-31.97-14.69-41.11l-14.35-14.35,1.41-10.06c4.54-32.55,6.88-66.27,6.96-100.22.85-403.61-326.66-737.44-730.08-744.17-296.55-4.75-567.17,166.53-689.46,436.65-3.53,7.9-8.08,15.2-13.5,21.61l-39.64,47.82c-8,9.66-12.4,21.93-12.4,34.53v259.22c0,33.07-16.36,63.87-43.77,82.37l-16,10.8Zm-7.65-4.63s.06.04.09.06c-.02-.02-.06-.04-.09-.06Z"/>
        </g>
        <g>
          <path class="cls-1" d="m368.65,1537.63h-91.43v-53.87h248.98v53.87h-91.43v231.84h-66.12v-231.84Z"/>
          <path class="cls-1" d="m713.01,1668.25v101.23h-66.13v-102.04l-110.61-183.67h70.21l76.32,126.94,76.32-126.94h64.9l-111.02,184.49Z"/>
          <path class="cls-1" d="m1038.85,1496.41c18.64,8.44,32.99,20.41,43.06,35.92,10.06,15.51,15.1,33.87,15.1,55.1s-5.04,39.25-15.1,54.89c-10.08,15.65-24.43,27.62-43.06,35.92-18.64,8.3-40.61,12.44-65.92,12.44h-57.55v78.78h-66.12v-285.71h123.67c25.31,0,47.28,4.23,65.92,12.65Zm-24.28,127.55c10.33-8.57,15.51-20.74,15.51-36.53s-5.17-28.37-15.51-36.94c-10.35-8.57-25.45-12.86-45.31-12.86h-53.87v99.19h53.87c19.87,0,34.96-4.29,45.31-12.86Z"/>
          <path class="cls-1" d="m1359.21,1716.41v53.06h-221.22v-285.71h215.91v53.06h-150.2v62.04h132.65v51.43h-132.65v66.12h155.51Z"/>
          <path class="cls-1" d="m1527.37,1483.76h66.12v285.71h-66.12v-285.71Z"/>
          <path class="cls-1" d="m1656.66,1483.76h66.12v285.71h-66.12v-285.71Z"/>
        </g>
      </g>
    </g>
  </g>
</svg>