<svg width="950" height="400" viewBox="42.7784 140.0541 208.0237 39.1065"
  xmlns="http://www.w3.org/2000/svg">
  <defs>
    <clipPath id="clip-2">
      <circle class="cls-4" cx="153.79" cy="153.79" r="153.79" style="fill: none;" />
    </clipPath>
    <clipPath id="clip-3">
      <path class="cls-6"
        d="m153.68,0C84.65,0,21.87,46.82,4.54,116.86c-20.42,82.44,29.88,165.81,112.32,186.2,82.45,20.41,165.81-29.88,186.21-112.32,20.4-82.44-29.87-165.81-112.33-186.2C178.34,1.47,165.92,0,153.69,0h-.01"
        style="fill: none;" />
    </clipPath>
    <radialGradient id="gradient-1" cx="-338.62" cy="2054.56" r=".78"
      gradientTransform="translate(67021.2 405863.31) scale(197.47 -197.47)"
      gradientUnits="userSpaceOnUse">
      <stop offset="0" stop-color="#fff" />
      <stop offset="0.78" stop-color="#fff" />
      <stop offset="0.82" stop-color="#f8f8f7" />
      <stop offset="0.88" stop-color="#e7e5e3" />
      <stop offset="0.96" stop-color="#cbc7c1" />
      <stop offset="1" stop-color="#bab4ac" />
    </radialGradient>
    <style>
      .cls-1 {
      fill: #f5f5f5;
      }

      .cls-2 {
      fill: #c42d1f;
      }
    </style>
  </defs>
  <g id="g-7"
    transform="matrix(0.12088900059461595, 0, 0, 0.11255499720573424, 127.33918951957205, 142.14227506730367)"
    style="">
    <g class="cls-3" style="clip-path: url('#clip-2');">
      <g>
        <rect class="cls-5" x="-93.29" y="0" width="512.65" height="307.59"
          style="fill: rgb(22, 38, 103);" />
        <g>
          <rect class="cls-5" x="-41.11" y="0" width="210.5" height="126.3"
            style="fill: rgb(22, 38, 103);" />
          <g>
            <rect class="cls-1" x="49.4" y="0" width="29.47" height="126.3"
              style="fill: rgb(255, 255, 255);" />
            <rect class="cls-1" x="-41.11" y="48.42" width="210.5" height="29.47"
              style="fill: rgb(255, 255, 255);" />
            <rect class="cls-2" x="-41.11" y="53.68" width="210.5" height="18.95"
              style="fill: rgb(170, 23, 49);" />
            <rect class="cls-2" x="54.66" y="0" width="18.95" height="126.3"
              style="fill: rgb(170, 23, 49);" />
          </g>
          <g>
            <polygon class="cls-1"
              points="49.4 77.89 49.4 84.57 -15.27 126.3 -41.11 126.3 -41.11 112.91 13.16 77.89 49.4 77.89"
              style="fill: rgb(255, 255, 255);" />
            <polygon class="cls-2"
              points="49.4 77.89 -25.61 126.3 -41.11 126.3 -41.11 126.28 33.88 77.89 49.4 77.89"
              style="fill: rgb(170, 23, 49);" />
          </g>
          <g>
            <polygon class="cls-1"
              points="169.39 110.1 169.39 126.3 146.93 126.3 78.87 87.03 78.87 77.89 113.57 77.89 169.39 110.1"
              style="fill: rgb(255, 255, 255);" />
            <polygon class="cls-2"
              points="169.39 116.58 169.39 126.3 85.51 77.89 102.35 77.89 169.39 116.58"
              style="fill: rgb(170, 23, 49);" />
          </g>
          <g>
            <polygon class="cls-1"
              points="169.39 0 169.39 13.41 115.12 48.42 78.87 48.42 78.87 48.41 78.87 41.74 143.57 0 169.39 0"
              style="fill: rgb(255, 255, 255);" />
            <polygon class="cls-2"
              points="169.39 0 169.39 .04 94.4 48.42 78.87 48.42 78.87 48.41 153.92 0 169.39 0"
              style="fill: rgb(170, 23, 49);" />
          </g>
          <g>
            <polygon class="cls-1"
              points="49.4 39.76 49.4 48.42 14.02 48.42 -41.11 16.4 -41.11 0 -19.05 0 49.4 39.76"
              style="fill: rgb(255, 255, 255);" />
            <polygon class="cls-2"
              points="41.95 48.42 25.19 48.42 -41.11 9.91 -41.11 .17 41.95 48.42"
              style="fill: rgb(170, 23, 49);" />
          </g>
        </g>
        <g>
          <polygon class="cls-2"
            points="210.09 145.43 214.16 157.94 227.3 157.94 216.67 165.66 220.73 178.17 210.09 170.44 199.46 178.17 203.52 165.66 192.88 157.94 206.03 157.94 210.09 145.43"
            style="fill: rgb(170, 23, 49);" />
          <path class="cls-1"
            d="m198.07,180.08l4.59-14.14-12.03-8.74h14.86l4.59-14.14,4.59,14.14h14.87l-12.03,8.74,4.59,14.14-12.03-8.74-12.03,8.74Zm12.03-10.54l9.25,6.72-3.53-10.87,9.25-6.72h-11.43l-3.53-10.87-3.53,10.87h-11.43l9.25,6.72-3.53,10.87,9.25-6.72Z"
            style="fill: rgb(255, 255, 255);" />
        </g>
        <g>
          <polygon class="cls-2"
            points="260.91 74.99 264.98 87.49 278.12 87.49 267.49 95.22 271.55 107.72 260.91 100 250.28 107.72 254.34 95.22 243.7 87.49 256.85 87.49 260.91 74.99"
            style="fill: rgb(170, 23, 49);" />
          <path class="cls-1"
            d="m272.94,109.64l-12.03-8.74-12.03,8.74,4.59-14.14-12.03-8.74h14.87l4.59-14.14,4.59,14.14h14.87l-12.03,8.74,4.59,14.14Zm-26.99-21.42l9.25,6.72-3.53,10.87,9.25-6.72,9.25,6.72-3.53-10.87,9.25-6.72h-11.43l-3.53-10.87-3.53,10.87h-11.43Z"
            style="fill: rgb(255, 255, 255);" />
        </g>
        <g>
          <polygon class="cls-2"
            points="296.27 131.37 300.34 143.88 313.48 143.88 302.85 151.61 306.91 164.11 296.27 156.38 285.64 164.11 289.7 151.61 279.06 143.88 292.21 143.88 296.27 131.37"
            style="fill: rgb(170, 23, 49);" />
          <path class="cls-1"
            d="m284.25,166.02l4.59-14.14-12.03-8.74h14.87l4.59-14.14,4.59,14.14h14.87l-12.03,8.74,4.59,14.14-12.03-8.74-12.03,8.74Zm12.03-10.54l9.25,6.72-3.53-10.87,9.25-6.72h-11.43l-3.53-10.87-3.53,10.87h-11.43l9.25,6.72-3.53,10.87,9.25-6.72Z"
            style="fill: rgb(255, 255, 255);" />
        </g>
        <g>
          <polygon class="cls-2"
            points="260.91 205.77 264.98 218.27 278.12 218.27 267.49 226 271.55 238.5 260.91 230.77 250.28 238.5 254.34 226 243.7 218.27 256.85 218.27 260.91 205.77"
            style="fill: rgb(170, 23, 49);" />
          <path class="cls-1"
            d="m272.94,240.41l-12.03-8.74-12.03,8.74,4.59-14.14-12.03-8.74h14.87l4.59-14.14,4.59,14.14h14.87l-12.03,8.74,4.59,14.14Zm-26.99-21.41l9.25,6.72-3.53,10.87,9.25-6.72,9.25,6.72-3.53-10.87,9.25-6.72h-11.43l-3.53-10.87-3.53,10.87h-11.43Z"
            style="fill: rgb(255, 255, 255);" />
        </g>
      </g>
    </g>
  </g>

  <g id="g-6"
    transform="matrix(0.1160149946808815, 0, 0, 0.1114649996161461, 83.82508975006772, 140.75033779070284)"
    style="">
    <g>
      <path class="cls-2"
        d="m4.54,116.86C24.94,34.4,108.32-15.86,190.75,4.54c82.45,20.4,132.72,103.76,112.33,186.2-20.4,82.44-103.76,132.73-186.21,112.32C34.42,282.67-15.87,199.31,4.54,116.86"
        style="fill: rgb(7, 110, 179);" />
      <path class="cls-1"
        d="m55.71,208.65l-3.95-12.11-3.92,12.13h-12.73l10.3,7.49-3.92,12.08,10.3-7.49,10.3,7.49-3.95-12.11,10.28-7.48h-12.7Zm-19.31-44.79l10.33,7.46-3.98-12.08,10.28-7.51-12.73.03-3.98-12.08-3.9,12.11-12.73.05,10.33,7.44-3.9,12.11,10.27-7.51Zm179.71,88.52l-3.9-12.11-3.98,12.08-12.7-.05,10.27,7.51-4,12.11,10.33-7.46,10.27,7.51-3.9-12.11,10.33-7.46-12.73-.03Zm-116.97.28l-3.92-12.08-3.92,12.11-12.73.03,10.3,7.46-3.9,12.11,10.27-7.51,10.3,7.46-3.95-12.08,10.28-7.49h-12.73Zm59.45,15.7l-3.95-12.08-3.92,12.13h-12.7l10.28,7.49-3.87,12.08,10.27-7.49,10.33,7.44-3.97-12.08,10.25-7.49h-12.7Zm100.86-59.64l-3.95-12.08-3.92,12.08-12.73.03,10.33,7.46-3.92,12.11,10.28-7.49,10.3,7.46-3.95-12.08,10.3-7.51-12.73.03Zm28.11-57.16l-12.73-.05-3.87-12.11-4,12.08-12.73-.05,10.27,7.51-3.97,12.08,10.32-7.44,10.28,7.54-3.9-12.13,10.33-7.43Zm-43.29-39.97l10.27-7.48,10.3,7.48-3.95-12.08,10.3-7.51-12.73.03-3.95-12.13-3.92,12.13h-12.73l10.33,7.49-3.92,12.08Zm-31.39-73.94l-3.9,12.08-12.73.03,10.33,7.46-3.92,12.11,10.28-7.46,10.3,7.44-3.95-12.08,10.28-7.51-12.7.03-3.98-12.08ZM40.58,112.53l10.28-7.49,10.3,7.46-3.95-12.11,10.3-7.49h-12.73l-3.95-12.08-3.92,12.11-12.73.02,10.3,7.46-3.9,12.11Zm43.4-43.37l10.3-7.49,10.28,7.46-3.93-12.11,10.28-7.49h-12.7l-3.95-12.08-3.92,12.11h-12.73l10.3,7.46-3.92,12.14Zm59.35-15.85l10.3-7.49,10.3,7.49-3.92-12.11,10.27-7.46h-12.73l-3.92-12.11-3.92,12.11h-12.73l10.27,7.46-3.92,12.11Z"
        style="fill: rgb(244, 210, 23);" />
    </g>
  </g>

  <g id="g-8"
    transform="matrix(0.11800500005483626, 0, 0, 0.11328599601984024, 170.6413141882615, 142.5159628170127)"
    style="">
    <g>
      <g class="cls-5" style="clip-path: url('#clip-3');">
        <rect class="cls-4" x="-15.87" y="0" width="339.34" height="323.47"
          style="fill: url('#gradient-1');" />
      </g>
      <path class="cls-1"
        d="m4.54,116.86C24.94,34.4,108.32-15.86,190.75,4.54c82.45,20.4,132.72,103.76,112.33,186.2-20.4,82.44-103.76,132.73-186.21,112.32C34.42,282.67-15.87,199.3,4.54,116.86"
        style="fill: rgb(46, 56, 105);" />
      <path class="cls-2"
        d="m262.89,45.39l-61.84,41.22V7.48c-3.38-1.09-6.81-2.07-10.3-2.94-29.01-7.18-58.14-5.6-84.6,3.05v79.02l-61.59-41.05c-14.11,14.21-25.57,31.31-33.35,50.68l16.31,10.87H7.31c-1.01,3.2-1.94,6.44-2.76,9.74-7.24,29.22-5.58,58.55,3.23,85.16h20.15l-16.14,10.76c7.82,18.8,19.33,35.95,33.85,50.34l60.52-40.34v77.22c3.5,1.14,7.07,2.17,10.71,3.06,28.87,7.15,57.84,5.62,84.19-2.92v-77.36l60.76,40.5c14.27-14.05,25.93-31.02,33.94-50.28l-16.47-10.98h20.55c1.21-3.69,2.3-7.45,3.25-11.27,7.09-28.66,5.63-57.43-2.74-83.62h-20.65l16.63-11.08c-7.67-18.88-19.03-36.14-33.43-50.65"
        style="fill: rgb(243, 241, 238);" />
      <path class="cls-7"
        d="m82.5,107.12l-57.1-37.98c-3.8,5.76-7.24,11.82-10.27,18.15l29.81,19.83h37.56Zm199.47-38.28c-3.84-5.79-8.07-11.33-12.66-16.57l-68.25,45.39v9.45h23.38l57.54-38.28ZM25.83,239.04c3.85,5.78,8.09,11.3,12.7,16.53l67.63-44.98v-8.57h-24.65l-55.68,37.03Zm279.41-112.16h-123.95V2.52c-18.79-3.43-37.5-3.28-55.37.03v124.34H2.42c-3.36,18.79-3.14,37.49.23,55.35h123.26v122.78c18.79,3.48,37.49,3.38,55.37.12v-122.9h123.63c3.55-18.77,3.5-37.47.31-55.35m-79.49,75.14l55.96,37.21c3.83-5.74,7.3-11.78,10.36-18.09l-28.77-19.13h-37.56Z"
        style="fill: rgb(196, 45, 31);" />
      <path class="cls-3" d="m201.06,23.48h0v9.97c.6-1.89.92-3.68.92-5.36,0-1.65-.3-3.19-.92-4.61"
        style="fill: rgb(56, 61, 97);" />
    </g>
  </g>

</svg>