<?xml version="1.0" encoding="UTF-8"?>
<svg id="Capa_2" data-name="Capa 2" xmlns="http://www.w3.org/2000/svg" viewBox="0 0 120 121.48">
  <g id="Capa_1-2" data-name="Capa 1">
    <g>
      <g id="g5067">
        <g id="g5069">
          <g id="path5071">
            <path d="m69.1,81.44c-.53,0-1.06-.17-1.5-.5l-10.28-7.74c-.63-.47-1-1.21-1-2v-9.19c0-1.38,1.12-2.5,2.5-2.5s2.5,1.12,2.5,2.5v7.94l7.78,5.86,7.78-5.86v-7.94c0-1.38,1.12-2.5,2.5-2.5s2.5,1.12,2.5,2.5v9.19c0,.79-.37,1.52-1,2l-10.28,7.74c-.45.34-.97.5-1.5.5Z"/>
          </g>
        </g>
      </g>
      <g id="g5081">
        <g id="path5083">
          <path d="m51.46,47.59h-3.53c-4.08,0-7.4-3.32-7.4-7.4v-3.67c0-4.08,3.32-7.4,7.4-7.4h3.53c1.38,0,2.5,1.12,2.5,2.5v13.47c0,1.38-1.12,2.5-2.5,2.5Zm-3.53-13.47c-1.32,0-2.4,1.08-2.4,2.4v3.67c0,1.32,1.08,2.4,2.4,2.4h1.03v-8.47h-1.03Z"/>
        </g>
      </g>
      <g id="g5085">
        <g id="path5087">
          <path d="m90.27,47.59h-3.53c-1.38,0-2.5-1.12-2.5-2.5v-13.47c0-1.38,1.12-2.5,2.5-2.5h3.53c4.08,0,7.4,3.32,7.4,7.4v3.67c0,4.08-3.32,7.4-7.4,7.4Zm-1.03-5h1.03c1.32,0,2.4-1.08,2.4-2.4v-3.67c0-1.32-1.08-2.4-2.4-2.4h-1.03v8.47Z"/>
        </g>
      </g>
      <g id="g5089">
        <g id="path5091">
          <path d="m76.69,42.84c-1.38,0-2.5-1.12-2.5-2.5v-2.31c0-1.38,1.12-2.5,2.5-2.5s2.5,1.12,2.5,2.5v2.31c0,1.38-1.12,2.5-2.5,2.5Z"/>
        </g>
      </g>
      <g id="g5093">
        <g id="path5095">
          <path d="m61.54,42.84c-1.38,0-2.5-1.12-2.5-2.5v-2.31c0-1.38,1.12-2.5,2.5-2.5s2.5,1.12,2.5,2.5v2.31c0,1.38-1.12,2.5-2.5,2.5Z"/>
        </g>
      </g>
      <g id="g5097">
        <g id="path5099">
          <path d="m69.1,56.8c-3.81,0-6.91-3.1-6.91-6.91,0-1.38,1.12-2.5,2.5-2.5s2.5,1.12,2.5,2.5c0,1.05.86,1.91,1.91,1.91s1.91-.86,1.91-1.91c0-1.38,1.12-2.5,2.5-2.5s2.5,1.12,2.5,2.5c0,3.81-3.1,6.91-6.91,6.91Z"/>
        </g>
      </g>
      <g id="g5101">
        <g id="path5103">
          <path d="m93.4,34.12h-26.36c-5.26,0-9.53-4.28-9.53-9.53v-15.06c0-5.26,4.28-9.53,9.53-9.53h11.93c9.34,0,16.93,7.6,16.93,16.93v14.69c0,1.38-1.12,2.5-2.5,2.5Zm-26.36-29.12c-2.5,0-4.53,2.03-4.53,4.53v15.06c0,2.5,2.03,4.53,4.53,4.53h23.86v-12.19c0-6.58-5.35-11.93-11.93-11.93h-11.93Z"/>
        </g>
      </g>
      <g id="g5105">
        <g id="path5107">
          <path d="m52.97,34.12h-8.09c-1.38,0-2.5-1.12-2.5-2.5v-11.29c0-7.19,5.85-13.05,13.05-13.05h4.57c1.38,0,2.5,1.12,2.5,2.5v14.81c0,5.26-4.28,9.53-9.53,9.53Zm-5.59-5h5.59c2.5,0,4.53-2.03,4.53-4.53v-12.31h-2.07c-4.44,0-8.05,3.61-8.05,8.05v8.79Z"/>
        </g>
      </g>
      <g id="g5109">
        <path d="m109.14,121.47H43.71c-1.38,0-2.5-1.12-2.5-2.5v-18.19c0-1.38,1.12-2.5,2.5-2.5s2.5,1.12,2.5,2.5v15.69h60.43v-28.68c0-3.19-2.04-6-5.06-6.98l-21.72-6.84-9.25,6.97c-.89.67-2.12.67-3.01,0l-9.18-6.92-11.21,4.19c-1.3.48-2.73-.17-3.22-1.47s.17-2.73,1.47-3.22l12.49-4.67c.8-.3,1.7-.17,2.38.34l8.78,6.61,8.78-6.61c.65-.49,1.49-.63,2.25-.39l22.97,7.23c5.12,1.67,8.54,6.38,8.54,11.74v31.18c0,1.38-1.12,2.5-2.5,2.5Z"/>
      </g>
      <g id="g5113">
        <g id="path5115">
          <path d="m94.58,121.48c-1.38,0-2.5-1.12-2.5-2.5v-25.09c0-1.38,1.12-2.5,2.5-2.5s2.5,1.12,2.5,2.5v25.09c0,1.38-1.12,2.5-2.5,2.5Z"/>
        </g>
      </g>
      <g id="g5133">
        <g id="path5135">
          <path d="m43.71,103.28c-1.38,0-2.5-1.12-2.5-2.5v-7.28c0-1.38,1.12-2.5,2.5-2.5s2.5,1.12,2.5,2.5v7.28c0,1.38-1.12,2.5-2.5,2.5Z"/>
        </g>
      </g>
      <g id="g5141">
        <g id="path5143">
          <path d="m94.58,114.2h-50.87c-1.38,0-2.5-1.12-2.5-2.5v-14.63c0-1.38,1.12-2.5,2.5-2.5h50.87c1.38,0,2.5,1.12,2.5,2.5v14.63c0,1.38-1.12,2.5-2.5,2.5Zm-48.37-5h45.87v-9.63h-45.87v9.63Z"/>
        </g>
      </g>
      <g id="g5145">
        <g id="path5147">
          <path d="m20.36,58.24c-.77,0-1.5-.36-1.97-.96l-2.84-3.64c-.85-1.09-.65-2.66.44-3.51,1.09-.85,2.66-.65,3.51.44l.86,1.11,3.7-4.75c.85-1.09,2.42-1.28,3.51-.44,1.09.85,1.28,2.42.44,3.51l-5.67,7.28c-.47.61-1.2.96-1.97.96Z"/>
        </g>
      </g>
      <g id="g5149">
        <g id="path5151">
          <path d="m29.18,75.21h-14.81c-3.37,0-6.02-3.27-6.02-7.45v-31.35c0-4.18,2.64-7.45,6.02-7.45h14.81c3.37,0,6.02,3.27,6.02,7.45v14.89l6.83,9.73c.54.76.6,1.76.17,2.59-.43.83-1.29,1.35-2.22,1.35h-4.78v2.8c0,4.18-2.64,7.45-6.02,7.45Zm-14.81-41.25c-.19,0-1.02.82-1.02,2.45v31.35c0,1.63.82,2.45,1.02,2.45h14.81c.19,0,1.02-.82,1.02-2.45v-5.3c0-1.38,1.12-2.5,2.5-2.5h2.47l-4.52-6.44c-.3-.42-.45-.92-.45-1.44v-15.68c0-1.63-.82-2.45-1.02-2.45h-14.81Z"/>
        </g>
      </g>
      <g id="g5153">
        <g id="path5155">
          <path d="m70.45,67.18h-2.69c-10.36,0-18.79-8.43-18.79-18.79v-16.77c0-1.38,1.12-2.5,2.5-2.5s2.5,1.12,2.5,2.5v16.77c0,7.6,6.19,13.79,13.79,13.79h2.69c7.6,0,13.79-6.19,13.79-13.79v-16.77c0-1.38,1.12-2.5,2.5-2.5s2.5,1.12,2.5,2.5v16.77c0,10.36-8.43,18.79-18.79,18.79Z"/>
        </g>
      </g>
      <path d="m43.71,121.48h-13.71c-1.38,0-2.5-1.12-2.5-2.5s1.12-2.5,2.5-2.5h13.71c1.38,0,2.5,1.12,2.5,2.5s-1.12,2.5-2.5,2.5Z"/>
      <path d="m30,121.48c-1.38,0-2.5-1.12-2.5-2.5v-30.75c0-5.36,3.42-10.08,8.52-11.74l9.48-2.98c.08-.03.16-.05.23-.07,1.34-.34,2.72.46,3.06,1.8.33,1.29-.39,2.6-1.65,3-.02,0-.04.01-.07.02l-9.54,3c-3,.98-5.04,3.79-5.04,6.98v30.75c0,1.38-1.12,2.5-2.5,2.5Z"/>
    </g>
  </g>
</svg>