<?xml version="1.0" encoding="UTF-8"?>
<svg id="Capa_2" data-name="Capa 2" xmlns="http://www.w3.org/2000/svg" viewBox="0 0 120 120" >
  <g id="Capa_1-2" data-name="Capa 1">
    <g id="g109">
      <g id="g115">
        <g id="path117">
          <path d="m87.61,118.98h-30.11v-25.42c0-5.64,2.2-10.95,6.2-14.94l15.82-15.8c3.63-3.62,9.53-3.63,13.16,0,1.08,1.08,1.86,2.37,2.3,3.78l5.35-5.35-.06-23.71c0-5.06,4.11-9.25,9.16-9.36,2.55-.04,4.94.89,6.75,2.67,1.81,1.77,2.81,4.15,2.81,6.69v35.47l-31.38,30.75v15.23Zm-25.11-5h20.11v-12.33l31.38-30.75v-33.37c0-1.18-.46-2.29-1.31-3.11-.85-.83-1.96-1.28-3.15-1.24-2.35.05-4.27,2.01-4.27,4.36l.07,25.78-12.66,12.65h0l-14.17,14.16-3.53-3.54,14.17-14.16c.81-.81,1.26-1.89,1.26-3.04s-.45-2.23-1.26-3.04c-1.68-1.68-4.41-1.68-6.09,0l-15.82,15.8c-3.05,3.05-4.73,7.1-4.73,11.4v20.42Z"/>
        </g>
      </g>
      <g id="g119">
        <g id="path121">
          <path d="m62.5,118.98h-30.11v-15.23L1.02,73v-35.47c0-2.54,1-4.91,2.81-6.69,1.81-1.77,4.22-2.71,6.75-2.67,5.05.11,9.16,4.31,9.16,9.36l-.06,23.71,5.35,5.35c.44-1.41,1.22-2.71,2.3-3.78,3.63-3.62,9.53-3.62,13.16,0l15.82,15.8c4,3.99,6.2,9.3,6.2,14.94v25.42Zm-25.11-5h20.11v-20.42c0-4.31-1.68-8.36-4.73-11.4l-15.82-15.8c-1.68-1.68-4.41-1.68-6.09,0-.81.81-1.26,1.89-1.26,3.04s.45,2.23,1.26,3.04l14.17,14.16-3.53,3.54-26.83-26.81.07-25.79c0-2.35-1.92-4.3-4.27-4.35-1.14-.03-2.3.42-3.15,1.24-.84.83-1.31,1.93-1.31,3.11v33.37l31.38,30.75v12.33Z"/>
        </g>
      </g>
      <g id="g123">
        <g id="path125">
          <path d="m60,60.21l-24.54-14.31V15.48L60,1.17l24.54,14.31v30.42l-24.54,14.31Zm-19.54-17.18l19.54,11.4,19.54-11.4v-24.67l-19.54-11.4-19.54,11.4v24.67Z"/>
        </g>
      </g>
      <g id="g127">
        <g id="path129">
          <polygon points="60 32.67 36.7 19.08 39.22 14.76 60 26.88 80.78 14.76 83.3 19.08 60 32.67"/>
        </g>
      </g>
      <g id="g131">
        <g id="path133">
          <rect x="57.5" y="29.77" width="5" height="27.54"/>
        </g>
      </g>
    </g>
  </g>
</svg>