<?xml version="1.0" encoding="UTF-8"?>
<svg id="Capa_2" data-name="Capa 2" xmlns="http://www.w3.org/2000/svg" viewBox="0 0 126.04 126.03">
  <g id="Capa_1-2" data-name="Capa 1">
    <g>
      <g id="g718">
        <g id="g724">
          <g id="path726">
            <polygon points="116.09 126.03 91.72 101.66 95.25 98.13 116.09 118.96 118.97 116.08 98.13 95.25 101.67 91.71 126.04 116.08 116.09 126.03"/>
          </g>
        </g>
        <g id="g728">
          <path d="m77.71,107.43c-15.74,0-28.77-12.3-29.66-28-.03-.56-.05-1.14-.05-1.72,0-7.11,2.54-13.97,7.16-19.33,5.64-6.59,13.87-10.38,22.55-10.38,5.31,0,10.51,1.41,15.02,4.08,9.06,5.29,14.7,15.12,14.7,25.63,0,16.39-13.33,29.72-29.72,29.72Zm0-54.43c-7.23,0-14.06,3.15-18.76,8.63-3.84,4.46-5.95,10.17-5.95,16.08,0,.48.02.96.05,1.43.74,13.06,11.57,23.29,24.66,23.29s24.72-11.09,24.72-24.72c0-8.74-4.69-16.91-12.23-21.32-3.76-2.22-8.07-3.39-12.49-3.39Z"/>
        </g>
      </g>
      <g>
        <g>
          <path d="m52.34,52.24h-3.88c-3.65,0-6.95-2.16-8.41-5.51l-6.68-15.39c-1.24-2.86-1.87-5.89-1.87-9.01v-9.01c0-5.09,3.21-9.67,8-11.4h0c7.03-2.55,14.78-2.55,21.82,0,4.78,1.73,8,6.32,8,11.4v9.01c0,3.12-.63,6.15-1.87,9.01l-6.68,15.39c-1.46,3.35-4.75,5.51-8.41,5.51Zm-1.94-47.24c-3.12,0-6.24.54-9.21,1.61h0c-2.81,1.02-4.7,3.71-4.7,6.7v9.01c0,2.43.49,4.79,1.46,7.02l6.68,15.39c.66,1.52,2.16,2.51,3.82,2.51h3.88c1.66,0,3.16-.98,3.82-2.51l6.68-15.39c.97-2.23,1.46-4.59,1.46-7.02v-9.01c0-2.99-1.89-5.68-4.7-6.7-2.97-1.08-6.09-1.61-9.2-1.61Zm-10.06-.74h0,0Z"/>
          <path d="m57.05,62.51H9.33c-1.38,0-2.5-1.12-2.5-2.5v-9.56c0-6.03,1.36-12.08,3.94-17.5,2.58-5.44,6.41-10.32,11.05-14.12.81-.65,1.65-1.28,2.51-1.88,1.78-3.7,5.19-6.33,9.25-7.09.77-.15,1.56.08,2.14.61.58.53.88,1.29.81,2.07l-.03.35c-.01.12-.02.28-.02.44v9.01c0,2.42.49,4.78,1.46,7.01l6.68,15.39c.66,1.52,2.16,2.5,3.83,2.5h3.87c1.66,0,3.17-.98,3.83-2.51l6.68-15.39c.97-2.23,1.46-4.59,1.46-7.01v-9.01c0-.12,0-.25-.02-.38,0-.05,0-.1,0-.14l-.02-.11c-.01-.11-.02-.24-.02-.34,0-.74.33-1.47.9-1.94s1.33-.69,2.06-.55c4.06.76,7.47,3.39,9.25,7.09.88.61,1.72,1.24,2.5,1.88,9.54,7.78,15.01,19.31,15.01,31.63v3.78c0,.9-.48,1.73-1.26,2.17-.78.45-1.74.44-2.51-.02-3.75-2.21-8.06-3.38-12.48-3.38-7.23,0-14.06,3.15-18.76,8.63-.47.56-1.17.88-1.9.88Zm-45.22-5h44.1c5.61-6.06,13.48-9.51,21.78-9.51,3.89,0,7.71.75,11.25,2.2-.07-10.71-4.86-20.73-13.17-27.51-.84-.69-1.75-1.36-2.72-2.01-.41-.28-.73-.67-.92-1.13-.59-1.43-1.59-2.65-2.85-3.52v6.29c0,3.11-.63,6.14-1.88,9.01l-6.68,15.39c-1.46,3.35-4.76,5.51-8.41,5.51h-3.87c-3.65,0-6.96-2.16-8.41-5.51l-6.68-15.39c-1.25-2.86-1.88-5.89-1.88-9v-6.29c-1.25.87-2.26,2.09-2.85,3.52-.19.46-.51.85-.92,1.13-.95.64-1.87,1.32-2.74,2.02-4.07,3.33-7.42,7.62-9.69,12.39-2.26,4.76-3.46,10.07-3.46,15.36v7.06Z"/>
          <path d="m26.34,45.94c-1.38,0-2.5-1.12-2.5-2.5,0-15.38,0-24.83,0-24.83,0-1.38,1.12-2.5,2.5-2.5h0c1.38,0,2.5,1.12,2.5,2.5,0,0,0,9.45,0,24.83,0,1.38-1.12,2.5-2.5,2.5Z"/>
          <path d="m74.46,45.94c-1.38,0-2.5-1.12-2.5-2.5,0-15.08,0-16.62,0-19.35v-5.49c0-1.38,1.12-2.5,2.5-2.5h0c1.38,0,2.5,1.12,2.5,2.5v5.49c0,2.72,0,4.27,0,19.34,0,1.38-1.12,2.5-2.5,2.5Z"/>
        </g>
        <path d="m50.55,81.79s-.04,0-.07,0l-8.47-.23s-.1,0-.15,0c-7.63-.66-15.02-2.62-21.95-5.83-3.99-1.85-8.52-2.95-12.16-3.83-4.91-1.19-7.15-1.73-7.58-4.03-.59-3.19.43-5.34,1.38-6.58,2.52-3.28,7.07-3.72,7.58-3.76.06,0,.13,0,.19,0h47.72c.98,0,1.87.57,2.27,1.46s.26,1.93-.38,2.67c-3.83,4.45-5.94,10.16-5.94,16.07,0,.48.02.96.05,1.43.04.7-.21,1.38-.7,1.89-.47.49-1.12.76-1.79.76Zm-8.33-5.23l5.79.16c.17-5.04,1.61-9.93,4.16-14.21H9.45c-.83.09-2.98.57-3.94,1.83-.14.19-.51.67-.51,1.66.93.31,2.56.7,3.93,1.03,3.65.88,8.65,2.09,13.09,4.15,6.38,2.96,13.18,4.77,20.2,5.38Z"/>
      </g>
    </g>
  </g>
</svg>