<?xml version="1.0" encoding="UTF-8"?>
<svg id="Capa_2" data-name="Capa 2" xmlns="http://www.w3.org/2000/svg" viewBox="0 0 125 124.73">
  <g id="Capa_1-2" data-name="Capa 1">
    <g>
      <g>
        <g>
          <path d="m64.79,87.78h-4.85c-4.32,0-8.21-2.56-9.93-6.52l-8.36-19.23c-1.52-3.5-2.29-7.2-2.29-11.02v-11.26c0-6.1,3.85-11.59,9.58-13.67h0c8.65-3.14,18.19-3.14,26.84,0,5.73,2.08,9.58,7.57,9.58,13.67v11.26c0,3.81-.77,7.52-2.29,11.02l-8.36,19.23c-1.72,3.96-5.62,6.52-9.93,6.52Zm-14.14-56.99h0c-3.76,1.36-6.29,4.97-6.29,8.97v11.26c0,3.12.63,6.16,1.88,9.02l8.36,19.23c.93,2.13,3.03,3.51,5.35,3.51h4.85c2.32,0,4.42-1.38,5.35-3.51l8.36-19.23c1.24-2.87,1.88-5.9,1.88-9.02v-11.26c0-4-2.53-7.6-6.29-8.97-7.56-2.74-15.88-2.74-23.44,0Z"/>
          <path d="m113.7,100.62H11.03c-1.38,0-2.5-1.12-2.5-2.5v-11.96c0-7.43,1.68-14.9,4.87-21.61,3.19-6.71,7.91-12.74,13.66-17.44,1.02-.84,2.11-1.65,3.22-2.42,2.13-4.52,6.26-7.74,11.19-8.67.78-.14,1.59.09,2.17.63.58.54.87,1.33.78,2.12-.04.3-.05.62-.05.97v11.26c0,3.12.63,6.16,1.88,9.02l8.35,19.24c.93,2.13,3.03,3.51,5.35,3.51h4.85c2.32,0,4.42-1.38,5.35-3.51l8.36-19.23c1.25-2.86,1.88-5.9,1.88-9.02v-11.26c0-.35-.02-.66-.05-.97-.09-.79.2-1.58.78-2.12.58-.54,1.39-.77,2.17-.63,4.93.93,9.06,4.14,11.18,8.67,1.12.77,2.2,1.58,3.22,2.42,11.78,9.61,18.53,23.84,18.53,39.04v11.96c0,1.38-1.12,2.5-2.5,2.5Zm-100.17-5h97.67v-9.46c0-13.69-6.08-26.51-16.69-35.17-1.08-.88-2.24-1.74-3.45-2.55-.41-.28-.73-.67-.92-1.13-.95-2.31-2.64-4.16-4.77-5.3v8.99c0,3.82-.77,7.52-2.29,11.02l-8.36,19.23c-1.72,3.96-5.62,6.52-9.93,6.52h-4.85c-4.31,0-8.21-2.56-9.94-6.52l-8.35-19.24c-1.52-3.49-2.29-7.2-2.29-11.02v-8.99c-2.12,1.14-3.82,2.99-4.77,5.3-.19.46-.51.85-.92,1.13-1.2.8-2.36,1.66-3.45,2.55-5.18,4.23-9.44,9.66-12.31,15.71-2.87,6.04-4.38,12.77-4.38,19.46v9.46Z"/>
          <path d="m32.29,79.91c-1.38,0-2.5-1.12-2.5-2.5,0-19.22,0-31.04,0-31.04,0-1.38,1.12-2.5,2.5-2.5h0c1.38,0,2.5,1.12,2.5,2.5,0,0,0,11.82,0,31.04,0,1.38-1.12,2.5-2.5,2.5Z"/>
          <path d="m92.44,79.91c-1.38,0-2.5-1.12-2.5-2.5,0-19.08,0-20.82,0-24.31v-6.73c0-1.38,1.12-2.5,2.5-2.5h0c1.38,0,2.5,1.12,2.5,2.5v6.73c0,3.49,0,5.23,0,24.3,0,1.38-1.12,2.5-2.5,2.5Z"/>
        </g>
        <path d="m62.89,124.73s-.04,0-.07,0l-10.92-.3s-.1,0-.15,0c-9.46-.82-18.62-3.26-27.21-7.24-5.04-2.34-10.98-3.77-15.31-4.82-5.88-1.42-8.56-2.07-9.02-4.55-.55-2.97,0-5.64,1.61-7.72,2.98-3.88,8.41-4.41,9.02-4.46.06,0,.13,0,.19,0h102.93c.07,0,.13,0,.19,0,.61.05,6.04.58,9.02,4.46,1.6,2.09,2.16,4.76,1.61,7.73-.46,2.48-3.14,3.13-9.02,4.55-4.33,1.05-10.27,2.48-15.31,4.82-8.48,3.93-17.51,6.35-26.83,7.2-.05,0-.1,0-.15,0l-10.51.33s-.05,0-.08,0Zm10.51-2.83h0,0Zm-21.29-2.46l10.78.29,10.36-.33c8.72-.81,17.17-3.08,25.11-6.76,5.49-2.54,11.7-4.04,16.24-5.14,1.94-.47,4.28-1.04,5.39-1.45.08-1.17-.17-2.13-.76-2.91-1.34-1.76-4.25-2.41-5.38-2.52H11.14c-1.11.11-4.03.76-5.38,2.52-.59.77-.84,1.73-.76,2.91,1.1.42,3.44.98,5.39,1.45,4.54,1.1,10.75,2.6,16.24,5.14,8.05,3.73,16.62,6.01,25.47,6.79Z"/>
      </g>
      <g>
        <g id="g2837">
          <g id="path2839">
            <path d="m114.18,45.91h-6.81c-5.23,0-9.33-4.01-9.33-9.13,0-1.38,1.12-2.5,2.5-2.5s2.5,1.12,2.5,2.5c0,2.35,1.86,4.13,4.33,4.13h6.81c3.26,0,5.81-2.44,5.81-5.56v-.4c0-3.23-2.66-5.96-5.81-5.96h-4.19c-6.05,0-10.79-4.7-10.79-10.69v-.33c0-5.98,4.74-10.66,10.79-10.66h3.96c5.21,0,9.44,4.11,9.44,9.16,0,1.38-1.12,2.5-2.5,2.5s-2.5-1.12-2.5-2.5c0-2.33-1.95-4.16-4.44-4.16h-3.96c-3.24,0-5.79,2.49-5.79,5.66v.33c0,3.19,2.54,5.69,5.79,5.69h4.19c5.96,0,10.81,4.92,10.81,10.96v.4c0,5.92-4.75,10.56-10.81,10.56Z"/>
          </g>
        </g>
        <g id="g2841">
          <g id="path2843">
            <path d="m111.52,11.62c-1.38,0-2.5-1.12-2.5-2.5V2.5c0-1.38,1.12-2.5,2.5-2.5s2.5,1.12,2.5,2.5v6.62c0,1.38-1.12,2.5-2.5,2.5Z"/>
          </g>
        </g>
        <g id="g2845">
          <g id="path2847">
            <path d="m111.52,53c-1.38,0-2.5-1.12-2.5-2.5v-5.82c0-1.38,1.12-2.5,2.5-2.5s2.5,1.12,2.5,2.5v5.82c0,1.38-1.12,2.5-2.5,2.5Z"/>
          </g>
        </g>
      </g>
    </g>
  </g>
</svg>