<?xml version="1.0" encoding="UTF-8"?>
<svg id="Capa_2" data-name="Capa 2" xmlns="http://www.w3.org/2000/svg" viewBox="0 0 125 125">
  <g id="Capa_1-2" data-name="Capa 1">
    <g>
      <path d="m112.66,104.96c-.29,0-.58-.05-.86-.15l-53.14-19.52c-5.1-1.87-10.43-2.82-15.87-2.82H2.5c-1.38,0-2.5-1.12-2.5-2.5s1.12-2.5,2.5-2.5h40.3c6.02,0,11.94,1.05,17.59,3.13l53.14,19.52c1.3.48,1.96,1.91,1.48,3.21-.37,1.01-1.33,1.64-2.35,1.64Z"/>
      <path d="m112.6,114.66c-1.39,0-2.8-.24-4.17-.72l-54.15-19.07c-4.7-1.66-9.62-2.5-14.6-2.5H2.5c-1.38,0-2.5-1.12-2.5-2.5v-19.83c0-1.38,1.12-2.5,2.5-2.5h40.03c8.8,0,17.44,1.57,25.68,4.67l48.74,18.35c4.82,1.81,8.05,6.49,8.05,11.64,0,4.09-1.91,7.79-5.25,10.15-2.15,1.52-4.63,2.3-7.15,2.3ZM5,87.38h34.68c5.55,0,11.03.94,16.26,2.78l54.15,19.07c2.3.81,4.77.47,6.77-.95,2-1.41,3.14-3.62,3.14-6.07,0-3.08-1.94-5.87-4.82-6.96l-48.74-18.35c-7.67-2.89-15.72-4.35-23.92-4.35H5v14.83Z"/>
      <path d="m105.93,125H2.5c-1.38,0-2.5-1.12-2.5-2.5v-32.62c0-1.38,1.12-2.5,2.5-2.5h37.18c5.55,0,11.02.94,16.26,2.78l50.82,17.9c1,.35,1.67,1.3,1.67,2.36v12.09c0,1.38-1.12,2.5-2.5,2.5Zm-100.93-5h98.43v-7.82l-49.16-17.31c-4.7-1.66-9.61-2.5-14.6-2.5H5v27.62Z"/>
      <path d="m46.47,72.55h-29.05c-1.38,0-2.5-1.12-2.5-2.5v-24.17c0-1.38,1.12-2.5,2.5-2.5h29.05c1.38,0,2.5,1.12,2.5,2.5v24.17c0,1.38-1.12,2.5-2.5,2.5Zm-26.55-5h24.05v-19.17h-24.05v19.17Z"/>
      <path d="m36.73,57.68h-9.57c-1.38,0-2.5-1.12-2.5-2.5v-9.31c0-1.38,1.12-2.5,2.5-2.5h9.57c1.38,0,2.5,1.12,2.5,2.5v9.31c0,1.38-1.12,2.5-2.5,2.5Zm-7.07-5h4.57v-4.31h-4.57v4.31Z"/>
      <path d="m97.11,88.23c-.3,0-.59-.05-.88-.16l-27.21-10.19c-1.29-.48-1.95-1.92-1.46-3.22l8.48-22.64c.23-.62.7-1.12,1.31-1.4s1.29-.3,1.91-.07l27.21,10.19c1.29.48,1.95,1.92,1.46,3.22l-8.48,22.64c-.23.62-.7,1.12-1.31,1.4-.33.15-.68.22-1.04.22Zm-23.99-14.16l22.52,8.44,6.73-17.95-22.52-8.44-6.73,17.95Z"/>
      <path d="m93.21,70.89c-.29,0-.59-.05-.88-.16l-8.96-3.36c-.62-.23-1.12-.7-1.4-1.31s-.3-1.29-.07-1.91l3.27-8.71c.23-.62.7-1.12,1.31-1.4.6-.28,1.29-.3,1.91-.07l8.96,3.36c.62.23,1.12.7,1.4,1.31s.3,1.29.07,1.91l-3.27,8.71c-.38,1-1.33,1.62-2.34,1.62Zm-5.74-7.32l4.28,1.6,1.51-4.03-4.28-1.6-1.51,4.03Z"/>
      <path d="m31.49,22c-4.25,0-7.7-3.46-7.7-7.7s3.46-7.7,7.7-7.7,7.7,3.46,7.7,7.7-3.46,7.7-7.7,7.7Zm0-10.4c-1.49,0-2.7,1.21-2.7,2.7s1.21,2.7,2.7,2.7,2.7-1.21,2.7-2.7-1.21-2.7-2.7-2.7Z"/>
      <path d="m20.06,39.43c-.46,0-.92-.12-1.33-.39l-6.71-4.23c-.73-.46-1.17-1.26-1.17-2.11v-7.61c0-.85.43-1.64,1.14-2.1l13.42-8.66c1.16-.75,2.71-.42,3.46.75.75,1.16.42,2.71-.75,3.46l-12.27,7.92v4.87l5.54,3.5c1.17.74,1.52,2.28.78,3.45-.48.75-1.29,1.17-2.12,1.17Z"/>
      <path d="m42.69,39.61c-.83,0-1.64-.41-2.12-1.17-.74-1.17-.39-2.71.78-3.45l5.82-3.67v-4.87l-12.27-7.92c-1.16-.75-1.49-2.3-.75-3.46.75-1.16,2.3-1.49,3.46-.75l13.42,8.66c.71.46,1.14,1.25,1.14,2.1v7.61c0,.86-.44,1.66-1.17,2.11l-6.98,4.41c-.41.26-.88.39-1.33.39Z"/>
      <path d="m31.49,11.59c-1.38,0-2.5-1.12-2.5-2.5V2.5c0-1.38,1.12-2.5,2.5-2.5s2.5,1.12,2.5,2.5v6.59c0,1.38-1.12,2.5-2.5,2.5Z"/>
    </g>
  </g>
</svg>