<?xml version="1.0" encoding="UTF-8"?>
<svg id="Capa_2" data-name="Capa 2" xmlns="http://www.w3.org/2000/svg" viewBox="0 0 120 121.48">
  <g id="Capa_1-2" data-name="Capa 1">
    <g>
      <g id="g5067">
        <g id="g5069">
          <g id="path5071">
            <path d="m69.1,81.44c-.53,0-1.06-.17-1.5-.5l-10.28-7.74c-.63-.47-1-1.21-1-2v-9.19c0-1.38,1.12-2.5,2.5-2.5s2.5,1.12,2.5,2.5v7.94l7.78,5.86,7.79-5.86v-7.94c0-1.38,1.12-2.5,2.5-2.5s2.5,1.12,2.5,2.5v9.19c0,.79-.37,1.53-1,2l-10.29,7.74c-.45.33-.97.5-1.5.5Z"/>
          </g>
        </g>
      </g>
      <g id="g5075">
        <g id="g5081">
          <g id="path5083">
            <path d="m51.46,47.59h-3.53c-4.08,0-7.4-3.32-7.4-7.4v-3.67c0-4.08,3.32-7.4,7.4-7.4h3.53c1.38,0,2.5,1.12,2.5,2.5v13.47c0,1.38-1.12,2.5-2.5,2.5Zm-3.53-13.47c-1.32,0-2.4,1.08-2.4,2.4v3.67c0,1.32,1.08,2.4,2.4,2.4h1.03v-8.47h-1.03Z"/>
          </g>
        </g>
        <g id="g5085">
          <g id="path5087">
            <path d="m90.27,47.59h-3.53c-1.38,0-2.5-1.12-2.5-2.5v-13.47c0-1.38,1.12-2.5,2.5-2.5h3.53c4.08,0,7.4,3.32,7.4,7.4v3.67c0,4.08-3.32,7.4-7.4,7.4Zm-1.03-5h1.03c1.32,0,2.4-1.08,2.4-2.4v-3.67c0-1.32-1.08-2.4-2.4-2.4h-1.03v8.47Z"/>
          </g>
        </g>
        <g id="g5089">
          <g id="path5091">
            <path d="m76.69,42.84c-1.38,0-2.5-1.12-2.5-2.5v-2.31c0-1.38,1.12-2.5,2.5-2.5s2.5,1.12,2.5,2.5v2.31c0,1.38-1.12,2.5-2.5,2.5Z"/>
          </g>
        </g>
        <g id="g5093">
          <g id="path5095">
            <path d="m61.55,42.84c-1.38,0-2.5-1.12-2.5-2.5v-2.31c0-1.38,1.12-2.5,2.5-2.5s2.5,1.12,2.5,2.5v2.31c0,1.38-1.12,2.5-2.5,2.5Z"/>
          </g>
        </g>
        <g id="g5097">
          <g id="path5099">
            <path d="m69.1,56.8c-3.81,0-6.91-3.1-6.91-6.91,0-1.38,1.12-2.5,2.5-2.5s2.5,1.12,2.5,2.5c0,1.05.86,1.91,1.91,1.91s1.91-.86,1.91-1.91c0-1.38,1.12-2.5,2.5-2.5s2.5,1.12,2.5,2.5c0,3.81-3.1,6.91-6.91,6.91Z"/>
          </g>
        </g>
        <g id="g5101">
          <g id="path5103">
            <path d="m93.4,34.12h-26.37c-5.26,0-9.53-4.28-9.53-9.53v-15.06c0-5.26,4.28-9.53,9.53-9.53h11.93c9.34,0,16.93,7.6,16.93,16.93v14.69c0,1.38-1.12,2.5-2.5,2.5Zm-26.37-29.12c-2.5,0-4.53,2.03-4.53,4.53v15.06c0,2.5,2.03,4.53,4.53,4.53h23.87v-12.19c0-6.58-5.35-11.93-11.93-11.93h-11.93Z"/>
          </g>
        </g>
        <g id="g5105">
          <g id="path5107">
            <path d="m52.97,34.12h-8.09c-1.38,0-2.5-1.12-2.5-2.5v-11.29c0-7.19,5.85-13.05,13.05-13.05h4.57c1.38,0,2.5,1.12,2.5,2.5v14.81c0,5.26-4.28,9.53-9.53,9.53Zm-5.59-5h5.59c2.5,0,4.53-2.03,4.53-4.53v-12.31h-2.07c-4.44,0-8.05,3.61-8.05,8.05v8.79Z"/>
          </g>
        </g>
        <g id="g5109">
          <g id="path5111">
            <path d="m21.66,121.48h-.13c-5.26,0-9.53-4.28-9.53-9.53v-7.53c0-1.38,1.12-2.5,2.5-2.5h7.41c.56,0,1.02-.46,1.02-1.02v-3.76c0-.55.18-1.09.52-1.53l13.33-17.31c1.08-1.41,2.54-2.49,4.21-3.11l16.97-6.34c.8-.3,1.7-.17,2.38.34l8.77,6.61,8.77-6.61c.65-.49,1.49-.63,2.26-.39l22.97,7.24c5.12,1.67,8.54,6.38,8.54,11.74v31.18c0,1.38-1.12,2.5-2.5,2.5H39.98c-1.38,0-2.5-1.12-2.5-2.5v-11.25l-7.97,9.63c-1.78,2.59-4.7,4.13-7.85,4.13Zm-4.66-14.56v5.03c0,2.5,2.03,4.53,4.53,4.53h.13c1.52,0,2.93-.75,3.77-2.02.05-.07.1-.14.15-.21l12.47-15.07c.67-.81,1.79-1.12,2.77-.76.99.36,1.65,1.3,1.65,2.35v15.69h64.16v-28.68c0-3.19-2.04-5.99-5.06-6.98l-21.72-6.84-9.25,6.97c-.89.67-2.12.67-3.01,0l-9.18-6.92-15.68,5.86c-.79.3-1.49.81-2,1.48l-12.81,16.63v2.91c0,3.32-2.7,6.02-6.02,6.02h-4.91Z"/>
          </g>
        </g>
        <g id="g5113">
          <g id="path5115">
            <path d="m94.58,121.48c-1.38,0-2.5-1.12-2.5-2.5v-25.09c0-1.38,1.12-2.5,2.5-2.5s2.5,1.12,2.5,2.5v25.09c0,1.38-1.12,2.5-2.5,2.5Z"/>
          </g>
        </g>
        <g id="g5117">
          <g id="path5119">
            <path d="m21.9,106.92h-7.53c-3.32,0-6.02-2.7-6.02-6.02v-14.81c0-3.32,2.7-6.02,6.02-6.02h7.53c3.32,0,6.02,2.7,6.02,6.02v14.81c0,3.32-2.7,6.02-6.02,6.02Zm-7.53-21.84c-.56,0-1.02.46-1.02,1.02v14.81c0,.56.46,1.02,1.02,1.02h7.53c.56,0,1.02-.46,1.02-1.02v-14.81c0-.56-.46-1.02-1.02-1.02h-7.53Z"/>
          </g>
        </g>
        <g id="g5121">
          <g id="path5123">
            <path d="m25.42,92.36h-7.28c-1.38,0-2.5-1.12-2.5-2.5s1.12-2.5,2.5-2.5h7.28c1.38,0,2.5,1.12,2.5,2.5s-1.12,2.5-2.5,2.5Z"/>
          </g>
        </g>
        <g id="g5125">
          <g id="path5127">
            <path d="m25.42,99.64h-7.28c-1.38,0-2.5-1.12-2.5-2.5s1.12-2.5,2.5-2.5h7.28c1.38,0,2.5,1.12,2.5,2.5s-1.12,2.5-2.5,2.5Z"/>
          </g>
        </g>
        <g id="g5129">
          <g id="path5131">
            <path d="m23.6,110.56c-1.38,0-2.5-1.12-2.5-2.5v-4.08c0-1.38,1.12-2.5,2.5-2.5s2.5,1.12,2.5,2.5v4.08c0,1.38-1.12,2.5-2.5,2.5Z"/>
          </g>
        </g>
        <g id="g5133">
          <g id="path5135">
            <path d="m39.98,103.28c-1.38,0-2.5-1.12-2.5-2.5v-7.28c0-1.38,1.12-2.5,2.5-2.5s2.5,1.12,2.5,2.5v7.28c0,1.38-1.12,2.5-2.5,2.5Z"/>
          </g>
        </g>
        <g id="g5137">
          <g id="path5139">
            <path d="m23.6,85.08h-7.28c-1.38,0-2.5-1.12-2.5-2.5v-7.75c0-3.39,2.75-6.14,6.14-6.14s6.14,2.75,6.14,6.14v7.75c0,1.38-1.12,2.5-2.5,2.5Zm-4.78-5h2.28v-5.25c0-.63-.51-1.14-1.14-1.14s-1.14.51-1.14,1.14v5.25Z"/>
          </g>
        </g>
        <g id="g5141">
          <g id="path5143">
            <path d="m94.58,114.21h-54.6c-1.38,0-2.5-1.12-2.5-2.5v-14.63c0-1.38,1.12-2.5,2.5-2.5h54.6c1.38,0,2.5,1.12,2.5,2.5v14.63c0,1.38-1.12,2.5-2.5,2.5Zm-52.1-5h49.6v-9.63h-49.6v9.63Z"/>
          </g>
        </g>
        <g id="g5153">
          <g id="path5155">
            <path d="m70.45,67.18h-2.69c-10.36,0-18.79-8.43-18.79-18.79v-16.77c0-1.38,1.12-2.5,2.5-2.5s2.5,1.12,2.5,2.5v16.77c0,7.6,6.19,13.79,13.79,13.79h2.69c7.6,0,13.79-6.19,13.79-13.79v-16.77c0-1.38,1.12-2.5,2.5-2.5s2.5,1.12,2.5,2.5v16.77c0,10.36-8.43,18.79-18.79,18.79Z"/>
          </g>
        </g>
      </g>
    </g>
  </g>
</svg>