<?xml version="1.0" encoding="UTF-8"?>
<svg id="Capa_2" data-name="Capa 2" xmlns="http://www.w3.org/2000/svg" viewBox="0 0 125 125">
  <g id="Capa_1-2" data-name="Capa 1">
    <g id="Bending">
      <path d="m122.5,125H2.5c-1.38,0-2.5-1.12-2.5-2.5v-38.64c0-1.38,1.12-2.5,2.5-2.5h26.95c.82,0,1.59.4,2.05,1.07l11.96,17.23h38.06l11.97-17.23c.47-.67,1.23-1.07,2.05-1.07h26.95c1.38,0,2.5,1.12,2.5,2.5v38.64c0,1.38-1.12,2.5-2.5,2.5Zm-117.5-5h115v-33.64h-23.14l-11.97,17.23c-.47.67-1.23,1.07-2.05,1.07h-40.68c-.82,0-1.59-.4-2.05-1.07l-11.96-17.23H5v33.64Z"/>
      <path d="m62.5,86.36c-.53,0-1.06-.17-1.5-.5l-40.68-30.51c-1.1-.83-1.33-2.4-.5-3.5.83-1.1,2.39-1.33,3.5-.5l39.18,29.38,39.18-29.38c1.1-.83,2.67-.6,3.5.5.83,1.1.6,2.67-.5,3.5l-40.68,30.51c-.44.33-.97.5-1.5.5Z"/>
      <path d="m62.5,55.85c-.66,0-1.3-.26-1.77-.73l-10.17-10.17c-.47-.47-.73-1.1-.73-1.77v-20.34c0-1.38,1.12-2.5,2.5-2.5s2.5,1.12,2.5,2.5v19.3l7.67,7.67,7.67-7.67v-19.3c0-1.38,1.12-2.5,2.5-2.5s2.5,1.12,2.5,2.5v20.34c0,.66-.26,1.3-.73,1.77l-10.17,10.17c-.47.47-1.1.73-1.77.73Z"/>
      <path d="m82.84,25.34h-40.68c-1.38,0-2.5-1.12-2.5-2.5V2.5c0-1.38,1.12-2.5,2.5-2.5s2.5,1.12,2.5,2.5v17.84h35.68V2.5c0-1.38,1.12-2.5,2.5-2.5s2.5,1.12,2.5,2.5v20.34c0,1.38-1.12,2.5-2.5,2.5Z"/>
      <path d="m113.35,5H11.65c-1.38,0-2.5-1.12-2.5-2.5s1.12-2.5,2.5-2.5h101.69c1.38,0,2.5,1.12,2.5,2.5s-1.12,2.5-2.5,2.5Z"/>
    </g>
  </g>
</svg>