<?xml version="1.0" encoding="UTF-8"?>
<svg id="Capa_2" data-name="Capa 2" xmlns="http://www.w3.org/2000/svg" viewBox="0 0 125 125">
  <g id="Capa_1-2" data-name="Capa 1">
    <g id="g3409">
      <g id="g3415">
        <g id="path3417">
          <path d="m95.12,79.94h-20.19v-2.5c0-6.86-5.58-12.44-12.44-12.44s-12.44,5.58-12.44,12.44v2.5h-20.19v-35.12h65.25v35.12Zm-15.37-5h10.37v-25.12h-55.25v25.12h10.37c1.22-8.44,8.49-14.94,17.26-14.94s16.04,6.5,17.26,14.94Z"/>
        </g>
      </g>
      <g id="g3419">
        <g id="path3421">
          <path d="m95.12,107.56h-5v-27.62h-10.37c-1.22,8.44-8.49,14.94-17.26,14.94s-16.04-6.5-17.26-14.94h-10.37v27.62h-5v-32.62h20.19v2.5c0,6.86,5.58,12.44,12.44,12.44s12.44-5.58,12.44-12.44v-2.5h20.19v32.62Z"/>
        </g>
      </g>
      <g id="g3423">
        <g id="path3425">
          <rect x="52.53" y="17.44" width="5" height="29.88"/>
        </g>
      </g>
      <g id="g3427">
        <g id="path3429">
          <rect x="67.47" y="17.44" width="5" height="29.88"/>
        </g>
      </g>
      <g id="g3431">
        <g id="path3433">
          <polygon points="125 107.56 120 107.56 120 5 110.06 5 110.06 107.56 105.06 107.56 105.06 0 125 0 125 107.56"/>
        </g>
      </g>
      <g id="g3435">
        <g id="path3437">
          <polygon points="5 115.03 0 115.03 0 0 19.94 0 19.94 107.56 14.94 107.56 14.94 5 5 5 5 115.03"/>
        </g>
      </g>
      <g id="g3439">
        <g id="path3441">
          <rect x="17.44" width="90.12" height="5"/>
        </g>
      </g>
      <g id="path3443">
        <path d="m125,125H0v-19.94h125v19.94Zm-120-5h115v-9.94H5v9.94Z"/>
      </g>
      <g id="g3445">
        <g id="path3447">
          <polygon points="79.94 19.94 45.06 19.94 45.06 2.5 50.06 2.5 50.06 14.94 74.94 14.94 74.94 2.5 79.94 2.5 79.94 19.94"/>
        </g>
      </g>
      <g id="g3449">
        <g id="path3451">
          <rect x="55.03" y="29.88" width="14.94" height="5"/>
        </g>
      </g>
    </g>
  </g>
</svg>