<?xml version="1.0" encoding="UTF-8"?>
<svg id="Capa_2" data-name="Capa 2" xmlns="http://www.w3.org/2000/svg" viewBox="0 0 126.04 126.04">
  <g id="Capa_1-2" data-name="Capa 1">
    <g>
      <g>
        <path d="m54.38,94.23H13.85c-1.38,0-2.5-1.12-2.5-2.5v-31.87c0-1.38,1.12-2.5,2.5-2.5h43.33c1.38,0,2.5,1.12,2.5,2.5s-1.12,2.5-2.5,2.5H16.35v26.87h38.03c1.38,0,2.5,1.12,2.5,2.5s-1.12,2.5-2.5,2.5Z"/>
        <path d="m50.58,78.29H13.85c-1.38,0-2.5-1.12-2.5-2.5s1.12-2.5,2.5-2.5h36.73c1.38,0,2.5,1.12,2.5,2.5s-1.12,2.5-2.5,2.5Z"/>
        <path d="m13.85,87.85H2.5c-1.38,0-2.5-1.12-2.5-2.5v-19.12c0-1.38,1.12-2.5,2.5-2.5h11.35c1.38,0,2.5,1.12,2.5,2.5s-1.12,2.5-2.5,2.5H5v14.12h8.85c1.38,0,2.5,1.12,2.5,2.5s-1.12,2.5-2.5,2.5Z"/>
        <path d="m56.87,62.36c-1.38,0-2.5-1.12-2.5-2.5v-20.21c0-1.06.67-2,1.67-2.36,6.63-2.34,11.08-8.64,11.08-15.67,0-9.16-7.46-16.62-16.62-16.62s-16.62,7.46-16.62,16.62c0,7.03,4.45,13.33,11.08,15.67,1,.35,1.67,1.3,1.67,2.36v20.21c0,1.38-1.12,2.5-2.5,2.5s-2.5-1.12-2.5-2.5v-18.52c-7.69-3.46-12.75-11.18-12.75-19.72C28.88,9.7,38.58,0,50.5,0s21.62,9.7,21.62,21.62c0,8.54-5.05,16.26-12.75,19.72v18.52c0,1.38-1.12,2.5-2.5,2.5Z"/>
        <path d="m67.1,33.6c-.42,0-.85-.11-1.24-.33-1.2-.69-1.61-2.21-.93-3.41.69-1.2.68-2.58-.02-3.79-.71-1.22-1.97-1.95-3.37-1.95h-22.08c-1.4,0-2.67.73-3.37,1.95-.7,1.21-.71,2.59-.02,3.79.69,1.2.27,2.73-.93,3.41-1.2.69-2.73.27-3.41-.93-1.57-2.75-1.56-6.03.04-8.79,1.61-2.78,4.49-4.44,7.7-4.44h22.08c3.21,0,6.09,1.66,7.7,4.44,1.6,2.75,1.61,6.04.04,8.79-.46.81-1.3,1.26-2.17,1.26Z"/>
      </g>
      <g id="g718">
        <g id="g724">
          <g id="path726">
            <polygon points="116.09 126.04 91.72 101.67 95.25 98.13 116.09 118.96 118.96 116.09 98.13 95.25 101.67 91.72 126.04 116.09 116.09 126.04"/>
          </g>
        </g>
        <g id="g728">
          <g id="path730">
            <path d="m77.71,107.43c-16.38,0-29.71-13.33-29.71-29.71s13.33-29.71,29.71-29.71,29.71,13.33,29.71,29.71-13.33,29.71-29.71,29.71Zm0-54.43c-13.63,0-24.71,11.09-24.71,24.71s11.09,24.71,24.71,24.71,24.71-11.09,24.71-24.71-11.09-24.71-24.71-24.71Z"/>
          </g>
        </g>
      </g>
    </g>
  </g>
</svg>