<?xml version="1.0" encoding="UTF-8"?>
<svg id="Capa_2" data-name="Capa 2" xmlns="http://www.w3.org/2000/svg" viewBox="0 0 134.11 125">
  <g id="Capa_1-2" data-name="Capa 1">
    <g>
      <path d="m116.34,125H17.77c-1.38,0-2.5-1.12-2.5-2.5v-42.86c0-1.38,1.12-2.5,2.5-2.5h98.57c1.38,0,2.5,1.12,2.5,2.5v42.86c0,1.38-1.12,2.5-2.5,2.5Zm-96.07-5h93.57v-37.86H20.27v37.86Z"/>
      <path d="m116.34,103.57H17.77c-1.38,0-2.5-1.12-2.5-2.5s1.12-2.5,2.5-2.5h98.57c1.38,0,2.5,1.12,2.5,2.5s-1.12,2.5-2.5,2.5Z"/>
      <path d="m131.61,116.43h-15.27c-1.38,0-2.5-1.12-2.5-2.5s1.12-2.5,2.5-2.5h12.77v-20.71h-12.77c-1.38,0-2.5-1.12-2.5-2.5s1.12-2.5,2.5-2.5h15.27c1.38,0,2.5,1.12,2.5,2.5v25.71c0,1.38-1.12,2.5-2.5,2.5Z"/>
      <path d="m17.77,116.43H2.5c-1.38,0-2.5-1.12-2.5-2.5v-25.71c0-1.38,1.12-2.5,2.5-2.5h15.27c1.38,0,2.5,1.12,2.5,2.5s-1.12,2.5-2.5,2.5H5v20.71h12.77c1.38,0,2.5,1.12,2.5,2.5s-1.12,2.5-2.5,2.5Z"/>
      <path d="m75.62,82.14c-1.38,0-2.5-1.12-2.5-2.5v-27.18c0-1.06.67-2,1.67-2.36,9.26-3.27,15.48-12.07,15.48-21.89,0-12.8-10.41-23.21-23.21-23.21s-23.21,10.41-23.21,23.21c0,9.82,6.22,18.62,15.48,21.89,1,.35,1.67,1.3,1.67,2.36v27.18c0,1.38-1.12,2.5-2.5,2.5s-2.5-1.12-2.5-2.5v-25.47c-10.32-4.4-17.14-14.62-17.14-25.96,0-15.56,12.66-28.21,28.21-28.21s28.21,12.66,28.21,28.21c0,11.34-6.82,21.55-17.14,25.96v25.47c0,1.38-1.12,2.5-2.5,2.5Z"/>
      <path d="m89.38,43.47c-.42,0-.85-.11-1.24-.33-1.2-.69-1.61-2.21-.93-3.41,1.07-1.86,1.05-4.09-.03-5.96-1.11-1.91-3.08-3.05-5.28-3.05h-29.7c-2.2,0-4.17,1.14-5.28,3.05-1.09,1.87-1.1,4.1-.03,5.96.69,1.2.27,2.73-.93,3.41-1.2.69-2.73.27-3.41-.93-1.96-3.43-1.94-7.52.04-10.95,2.01-3.47,5.6-5.54,9.61-5.54h29.7c4,0,7.59,2.07,9.61,5.54,1.99,3.43,2.01,7.53.04,10.95-.46.81-1.31,1.26-2.17,1.26Z"/>
    </g>
  </g>
</svg>