<?xml version="1.0" encoding="UTF-8"?>
<svg id="Capa_2" data-name="Capa 2" xmlns="http://www.w3.org/2000/svg" viewBox="0 0 126.04 126.04">
  <g id="Capa_1-2" data-name="Capa 1">
    <g>
      <g id="g3409">
        <g id="g3415">
          <path d="m41.05,64.95h-17.15v-29.1h53.2v14.83h-5v-9.83H28.9v19.1h7.37c1.19-6.78,7.12-11.95,14.23-11.95,5.1,0,9.87,2.73,12.46,7.12l-4.31,2.54c-1.69-2.87-4.81-4.66-8.14-4.66-5.21,0-9.45,4.24-9.45,9.45v2.5Z"/>
        </g>
        <g id="g3419">
          <path d="m28.9,86.55h-5v-26.6h17.15v2.5c0,5.21,4.24,9.45,9.45,9.45-.02,0-.08,0-.13.01l.69,4.95c-.19.03-.37.03-.55.03-7.12,0-13.05-5.17-14.23-11.95h-7.37v21.6Z"/>
        </g>
        <g id="g3423">
          <g id="path3425">
            <rect x="42.02" y="14.45" width="5" height="23.9"/>
          </g>
        </g>
        <g id="g3427">
          <g id="path3429">
            <rect x="53.97" y="14.45" width="5" height="23.9"/>
          </g>
        </g>
        <g id="g3431">
          <polygon points="101 60.15 96 60.15 96 5 89.05 5 89.05 51.97 84.05 51.97 84.05 0 101 0 101 60.15"/>
        </g>
        <g id="g3435">
          <g id="path3437">
            <polygon points="5 92.52 0 92.52 0 0 16.95 0 16.95 86.55 11.95 86.55 11.95 5 5 5 5 92.52"/>
          </g>
        </g>
        <g id="g3439">
          <rect x="14.45" width="72.1" height="5"/>
        </g>
        <path d="m66.99,101H0v-16.95h53.76l.58,1.69c1.45,4.22,4.01,7.97,7.43,10.85l5.23,4.41Zm-61.99-5h49.29c-1.66-2.12-3.02-4.46-4.05-6.95H5v6.95Z"/>
        <path d="m96.89,100.41l-3.23-3.82c1.05-.89,2.04-1.87,2.92-2.92l3.82,3.23c-1.07,1.27-2.25,2.45-3.52,3.52Z"/>
        <g id="g3445">
          <g id="path3447">
            <polygon points="64.95 16.95 36.05 16.95 36.05 2.5 41.05 2.5 41.05 11.95 59.95 11.95 59.95 2.5 64.95 2.5 64.95 16.95"/>
          </g>
        </g>
        <g id="g3449">
          <g id="path3451">
            <rect x="44.52" y="23.9" width="11.95" height="5"/>
          </g>
        </g>
      </g>
      <g id="g718">
        <g id="g724">
          <g id="path726">
            <polygon points="116.09 126.04 91.72 101.67 95.25 98.13 116.09 118.96 118.96 116.09 98.13 95.25 101.67 91.72 126.04 116.09 116.09 126.04"/>
          </g>
        </g>
        <g id="g728">
          <path d="m77.71,107.43c-7.01,0-13.82-2.49-19.17-7.02-4.1-3.46-7.19-7.97-8.93-13.05-1.06-3.1-1.6-6.35-1.6-9.65,0-1.25.08-2.44.23-3.64.94-7.76,4.85-14.74,11.01-19.64,4.34-3.45,9.55-5.61,15.07-6.24,1.1-.13,2.25-.2,3.39-.2,3.3,0,6.54.54,9.65,1.6,5.07,1.74,9.58,4.83,13.05,8.93,4.53,5.35,7.02,12.16,7.02,19.17,0,6.22-1.9,12.17-5.49,17.22-.45.64-.97,1.3-1.53,1.96-1.07,1.27-2.25,2.45-3.52,3.52-.66.55-1.32,1.07-1.97,1.53-5.04,3.59-11,5.49-17.22,5.49Zm0-54.43c-.95,0-1.9.05-2.82.16-4.6.52-8.93,2.32-12.54,5.18-5.13,4.08-8.38,9.88-9.16,16.34-.13,1.01-.19,1.99-.19,3.02,0,2.75.45,5.45,1.33,8.03,1.45,4.22,4.01,7.97,7.43,10.85,4.45,3.77,10.12,5.84,15.95,5.84,5.17,0,10.12-1.58,14.32-4.57.54-.38,1.09-.81,1.64-1.27,1.05-.89,2.04-1.87,2.92-2.92.47-.55.89-1.1,1.27-1.63,2.99-4.2,4.57-9.15,4.57-14.32,0-5.83-2.07-11.49-5.84-15.95-2.88-3.42-6.63-5.99-10.85-7.43-2.58-.89-5.29-1.33-8.03-1.33Z"/>
        </g>
      </g>
    </g>
  </g>
</svg>