<?xml version="1.0" encoding="UTF-8"?>
<svg id="Capa_2" data-name="Capa 2" xmlns="http://www.w3.org/2000/svg" viewBox="0 0 122.5 112.4">
  <g id="Capa_1-2" data-name="Capa 1">
    <g>
      <rect x="20.59" y="72.11" width="5" height="25.25"/>
      <g>
        <g>
          <g id="g5067">
            <g id="g5069">
              <g id="path5071">
                <path d="m75.57,75.48c-.53,0-1.06-.17-1.5-.5l-9.48-7.14c-.63-.47-1-1.21-1-2v-8.47c0-1.38,1.12-2.5,2.5-2.5s2.5,1.12,2.5,2.5v7.22l6.98,5.26,6.98-5.26v-7.22c0-1.38,1.12-2.5,2.5-2.5s2.5,1.12,2.5,2.5v8.47c0,.79-.37,1.52-1,2l-9.48,7.14c-.45.33-.97.5-1.5.5Z"/>
              </g>
            </g>
          </g>
          <g id="g5075">
            <g id="g5081">
              <g id="path5083">
                <path d="m59.31,44.27h-3.25c-3.87,0-7.02-3.15-7.02-7.02v-3.38c0-3.87,3.15-7.02,7.02-7.02h3.25c1.38,0,2.5,1.12,2.5,2.5v12.42c0,1.38-1.12,2.5-2.5,2.5Zm-3.25-12.42c-1.11,0-2.02.9-2.02,2.02v3.38c0,1.11.9,2.02,2.02,2.02h.75v-7.42h-.75Z"/>
              </g>
            </g>
            <g id="g5085">
              <g id="path5087">
                <path d="m95.09,44.27h-3.25c-1.38,0-2.5-1.12-2.5-2.5v-12.42c0-1.38,1.12-2.5,2.5-2.5h3.25c3.87,0,7.02,3.15,7.02,7.02v3.38c0,3.87-3.15,7.02-7.02,7.02Zm-.75-5h.75c1.11,0,2.02-.9,2.02-2.02v-3.38c0-1.11-.9-2.02-2.02-2.02h-.75v7.42Z"/>
              </g>
            </g>
            <g id="g5089">
              <g id="path5091">
                <path d="m82.57,39.89c-1.38,0-2.5-1.12-2.5-2.5v-2.13c0-1.38,1.12-2.5,2.5-2.5s2.5,1.12,2.5,2.5v2.13c0,1.38-1.12,2.5-2.5,2.5Z"/>
              </g>
            </g>
            <g id="g5093">
              <g id="path5095">
                <path d="m68.6,39.89c-1.38,0-2.5-1.12-2.5-2.5v-2.13c0-1.38,1.12-2.5,2.5-2.5s2.5,1.12,2.5,2.5v2.13c0,1.38-1.12,2.5-2.5,2.5Z"/>
              </g>
            </g>
            <g id="g5097">
              <g id="path5099">
                <path d="m75.57,52.76c-3.62,0-6.56-2.94-6.56-6.56,0-1.38,1.12-2.5,2.5-2.5s2.5,1.12,2.5,2.5c0,.86.7,1.56,1.56,1.56s1.56-.7,1.56-1.56c0-1.38,1.12-2.5,2.5-2.5s2.5,1.12,2.5,2.5c0,3.62-2.94,6.56-6.56,6.56Z"/>
              </g>
            </g>
            <g id="g5101">
              <g id="path5103">
                <path d="m97.97,31.85h-24.31c-4.95,0-8.98-4.03-8.98-8.98v-13.88c0-4.95,4.03-8.98,8.98-8.98h11c8.72,0,15.81,7.09,15.81,15.81v13.54c0,1.38-1.12,2.5-2.5,2.5Zm-24.31-26.85c-2.2,0-3.98,1.79-3.98,3.98v13.88c0,2.2,1.79,3.98,3.98,3.98h21.81v-11.04c0-5.96-4.85-10.81-10.81-10.81h-11Z"/>
              </g>
            </g>
            <g id="g5105">
              <g id="path5107">
                <path d="m60.7,31.85h-7.46c-1.38,0-2.5-1.12-2.5-2.5v-10.41c0-6.74,5.48-12.22,12.22-12.22h4.22c1.38,0,2.5,1.12,2.5,2.5v13.66c0,4.95-4.03,8.98-8.98,8.98Zm-4.96-5h4.96c2.2,0,3.98-1.79,3.98-3.98v-11.16h-1.72c-3.98,0-7.22,3.24-7.22,7.22v7.91Z"/>
              </g>
            </g>
            <g id="g5109">
              <path d="m112.49,112.39h-63.77c-1.38,0-2.5-1.12-2.5-2.5v-9.83l-4.67,5.64c-.29.35-.57.72-.85,1.08-1.22,1.58-2.61,3.36-4.88,4.45-2.44,1.17-5.29,1.39-7.82.61-2.96-.92-5.46-3.2-6.69-6.1-1.06-2.51-.92-5.03-.8-7.26.04-.68.08-1.36.08-2.04,0-1.38,1.12-2.5,2.5-2.5s2.5,1.12,2.5,2.5c0,.77-.04,1.54-.08,2.32-.11,1.92-.2,3.58.41,5.03.65,1.54,2.01,2.79,3.56,3.27,1.34.42,2.86.29,4.18-.34,1.2-.58,2.08-1.7,3.09-3,.31-.4.63-.81.95-1.2l9.09-10.99c.67-.81,1.78-1.12,2.77-.76.99.36,1.65,1.3,1.65,2.35v14.27h58.77v-26.25c0-2.86-1.82-5.37-4.54-6.25l-19.93-6.27-8.45,6.36c-.89.67-2.12.67-3.01,0l-8.38-6.31-14.35,5.37c-.69.26-1.31.71-1.77,1.31l-12.28,15.95c-.84,1.09-2.41,1.3-3.51.46-1.09-.84-1.3-2.41-.46-3.51l12.29-15.96c1.04-1.33,2.41-2.34,3.97-2.93l15.64-5.85c.8-.3,1.7-.17,2.38.34l7.97,6,7.97-6c.65-.48,1.49-.63,2.25-.39l21.18,6.67c4.8,1.56,8.01,5.99,8.01,11.01v28.75c0,1.38-1.12,2.5-2.5,2.5Z"/>
            </g>
            <g id="g5113">
              <g id="path5115">
                <path d="m99.06,112.4c-1.38,0-2.5-1.12-2.5-2.5v-23.13c0-1.38,1.12-2.5,2.5-2.5s2.5,1.12,2.5,2.5v23.13c0,1.38-1.12,2.5-2.5,2.5Z"/>
              </g>
            </g>
            <g id="g5133">
              <g id="path5135">
                <path d="m48.72,95.62c-1.38,0-2.5-1.12-2.5-2.5v-6.71c0-1.38,1.12-2.5,2.5-2.5s2.5,1.12,2.5,2.5v6.71c0,1.38-1.12,2.5-2.5,2.5Z"/>
              </g>
            </g>
            <g id="g5141">
              <g id="path5143">
                <path d="m99.06,105.69h-50.34c-1.38,0-2.5-1.12-2.5-2.5v-13.49c0-1.38,1.12-2.5,2.5-2.5h50.34c1.38,0,2.5,1.12,2.5,2.5v13.49c0,1.38-1.12,2.5-2.5,2.5Zm-47.84-5h45.34v-8.49h-45.34v8.49Z"/>
              </g>
            </g>
            <g id="g5153">
              <g id="path5155">
                <path d="m76.81,62.33h-2.48c-9.66,0-17.52-7.86-17.52-17.52v-15.46c0-1.38,1.12-2.5,2.5-2.5s2.5,1.12,2.5,2.5v15.46c0,6.9,5.62,12.52,12.52,12.52h2.48c6.9,0,12.52-5.62,12.52-12.52v-15.46c0-1.38,1.12-2.5,2.5-2.5s2.5,1.12,2.5,2.5v15.46c0,9.66-7.86,17.52-17.52,17.52Z"/>
              </g>
            </g>
          </g>
        </g>
        <rect x="32.79" y="71.89" width="5" height="17.88"/>
        <g>
          <g>
            <path d="m30.18,58.09h-2.16c-2.47,0-4.7-1.46-5.69-3.73l-3.71-8.55c-.75-1.73-1.13-3.56-1.13-5.45v-5c0-3.29,2.08-6.26,5.17-7.38,4.15-1.51,8.72-1.5,12.88,0,3.09,1.12,5.17,4.09,5.17,7.38v5c0,1.88-.38,3.72-1.13,5.45l-3.71,8.55c-.98,2.27-3.22,3.73-5.69,3.73Zm-1.08-26.24c-1.6,0-3.21.28-4.73.83h0c-1.12.41-1.88,1.48-1.88,2.68v5c0,1.2.24,2.36.72,3.46l3.71,8.55c.19.44.62.72,1.1.72h2.16c.48,0,.91-.28,1.1-.72l3.71-8.55c.48-1.1.72-2.26.72-3.46v-5c0-1.2-.75-2.27-1.88-2.68-1.53-.55-3.13-.83-4.73-.83Zm-5.59-1.52h0,0Z"/>
            <path d="m51.92,63.8H6.29c-1.38,0-2.5-1.12-2.5-2.5v-5.31c0-3.5.79-7.03,2.3-10.2,1.5-3.17,3.73-6.01,6.45-8.23.39-.32.8-.63,1.23-.93,1.18-2.23,3.29-3.81,5.8-4.28.78-.14,1.59.09,2.17.63.58.54.87,1.33.78,2.12-.01.09-.01.18-.01.27v5c0,1.2.24,2.36.72,3.46l3.71,8.55c.19.44.62.72,1.1.72h2.15c.48,0,.91-.28,1.1-.72l3.71-8.55c.48-1.1.72-2.26.72-3.46v-5c0-.09,0-.17-.01-.26-.1-.79.19-1.58.77-2.13.58-.54,1.39-.78,2.17-.63,2.5.47,4.62,2.05,5.8,4.28.42.3.83.61,1.23.94,5.56,4.54,8.75,11.25,8.75,18.43v5.31c0,1.38-1.12,2.5-2.5,2.5Zm-43.13-5h40.63v-2.81c0-5.67-2.52-10.97-6.91-14.55-.45-.37-.93-.72-1.42-1.05-.13-.09-.26-.19-.37-.3v.29c0,1.89-.38,3.72-1.13,5.45l-3.71,8.55c-.99,2.27-3.22,3.73-5.69,3.73h-2.15c-2.47,0-4.7-1.46-5.69-3.73l-3.71-8.55c-.75-1.73-1.13-3.56-1.13-5.45v-.29c-.11.11-.24.21-.37.3-.5.33-.98.69-1.43,1.05-2.14,1.75-3.91,4-5.09,6.5-1.19,2.5-1.81,5.29-1.81,8.05v2.81Z"/>
            <path d="m15.74,54.6c-1.38,0-2.5-1.12-2.5-2.5,0-8.54,0-13.79,0-13.79,0-1.38,1.12-2.5,2.5-2.5h0c1.38,0,2.5,1.12,2.5,2.5,0,0,0,5.25,0,13.8,0,1.38-1.12,2.5-2.5,2.5Z"/>
            <path d="m42.47,54.6c-1.38,0-2.5-1.12-2.5-2.5,0-8.32,0-9.22,0-10.72v-3.08c0-1.38,1.12-2.5,2.5-2.5h0c1.38,0,2.5,1.12,2.5,2.5v3.08c0,1.49,0,2.4,0,10.71,0,1.38-1.12,2.5-2.5,2.5Z"/>
          </g>
          <path d="m29.34,74.51s-.05,0-.07,0l-4.85-.13s-.1,0-.15,0c-4.37-.38-8.59-1.5-12.56-3.34-2.12-.98-4.58-1.58-6.55-2.05-2.92-.71-4.68-1.13-5.04-3.12-.4-2.17.31-3.66.98-4.53,1.69-2.2,4.67-2.49,5-2.52.06,0,.13,0,.19,0h45.75c.07,0,.13,0,.19,0,.33.03,3.31.32,5,2.52.67.87,1.38,2.36.98,4.53-.37,1.99-2.13,2.41-5.04,3.12-1.97.48-4.43,1.07-6.55,2.05-3.91,1.81-8.08,2.93-12.38,3.32-.05,0-.1,0-.15,0l-4.67.15s-.05,0-.08,0Zm4.67-2.65h0,0Zm-9.38-2.48l4.71.13,4.52-.14c3.7-.35,7.29-1.31,10.66-2.88,2.56-1.19,5.4-1.87,7.48-2.38.19-.05.39-.09.6-.14-.24-.08-.49-.15-.69-.17H6.42c-.2.03-.45.09-.68.17.2.05.41.1.6.14,2.07.5,4.91,1.19,7.48,2.38,3.42,1.58,7.06,2.55,10.82,2.89Z"/>
        </g>
      </g>
    </g>
  </g>
</svg>